<svg width="38px" height="37px" viewBox="0 0 38 37" version="1.1" xmlns="http://www.w3.org/2000/svg">
    <g id="Page-1" stroke="none" stroke-width="1" fill="none" fill-rule="evenodd">
        <g id="logo_optimized" transform="translate(0.113761, 0.849558)" fill="#2C57DD" fill-rule="nonzero">
            <path d="M29.3552655,13.2743363 C33.7642699,13.2743363 37.3680745,16.748704 37.5758521,21.1066124 L37.5811062,21.2389381 L37.585354,21.2389381 L37.585354,35.3941593 L21.125177,35.3941593 L21.125177,21.2389381 L21.1294248,21.2389381 C21.2697345,16.8192478 24.9017257,13.2743363 29.3552655,13.2743363 Z M20.0442478,7.90765487 L20.0442478,15.565354 C20.0442478,20.350354 16.1593805,24.2350885 11.3743805,24.2350885 L8.66986726,24.2350885 C3.88486726,24.2350885 0,20.5770796 0,16.0713717 C0,11.5657965 3.88486726,7.90765487 8.66986726,7.90765487 L20.0442478,7.90765487 Z M16.4210177,13.8511062 C16.3095133,13.8511062 16.2233186,13.8705309 16.1624336,13.9093805 C16.1015486,13.9483185 16.0438496,14.0235398 15.9893363,14.1350442 C15.9494247,14.2167492 15.9060154,14.3214883 15.859108,14.4492613 L15.8232715,14.5494101 L15.8065487,14.5977876 L14.9548673,17.0283186 L14.0565929,14.415 C13.9969469,14.2334956 13.9282301,14.0941151 13.8504425,13.9968584 C13.7726549,13.8996903 13.6573009,13.8511062 13.5043805,13.8511062 C13.4161504,13.8511062 13.331239,13.8744248 13.249646,13.9210619 C13.1679646,13.9677876 13.1037611,14.03 13.0570354,14.1076991 C13.0103982,14.1854867 12.9870796,14.2697788 12.9870796,14.3605752 C12.9870796,14.4290354 13.0127929,14.5306566 13.0642195,14.6654389 L13.0920755,14.7355935 L13.1076106,14.7727434 L14.4143363,18.0627876 L14.3171681,18.3 L14.2975627,18.3463329 L14.259609,18.4327323 C14.2101218,18.5423616 14.1651046,18.6297104 14.1245575,18.6947788 C14.0688938,18.7842478 14.0060619,18.8471239 13.9360619,18.8834071 C13.866062,18.9196902 13.7701327,18.9378319 13.6482743,18.9378319 C13.5989823,18.9378319 13.5406195,18.9300442 13.4731858,18.914469 C13.4187611,18.8989823 13.3630088,18.8912389 13.3059292,18.8912389 C13.1607965,18.8912389 13.0512832,18.924292 12.9773894,18.9903982 C12.9034956,19.0565044 12.8665487,19.1504867 12.8665487,19.2723451 C12.8665487,19.4511946 12.9443363,19.5743363 13.0999115,19.6417699 C13.2554867,19.7092035 13.4888054,19.7429204 13.7998673,19.7429204 C14.1188054,19.7429204 14.3722566,19.6942921 14.5602212,19.5970354 C14.7481858,19.4997787 14.8992036,19.3604425 15.0132743,19.1790265 C15.1197404,19.0096224 15.228442,18.7803583 15.3393794,18.4912342 L16.7476991,14.8039381 C16.7814159,14.7105753 16.8099558,14.6185398 16.8333186,14.5278319 L16.8694392,14.3819075 L16.8838938,14.3176991 C16.8838938,14.2373452 16.863761,14.160885 16.8234956,14.0883186 C16.7833185,14.0157522 16.7262832,13.9580531 16.6523894,13.9152212 C16.5784955,13.8724779 16.5013716,13.8511062 16.4210177,13.8511062 Z M4.50132743,12.2721239 C4.33539823,12.2721239 4.20641592,12.3259292 4.11438053,12.4335398 C4.02848083,12.5339764 3.98266765,12.6812834 3.976941,12.8754608 L3.97632743,12.9177876 L3.97632743,17.5222566 C3.97632743,17.9526106 4.15132743,18.1677876 4.50132743,18.1677876 C4.6699115,18.1677876 4.80150442,18.1126991 4.89610619,18.0025221 C4.98440119,17.8996902 5.03149184,17.75338 5.03737817,17.5635912 L5.03800885,17.5222566 L5.03818574,16.0639772 L5.03960095,15.9597858 L5.04437724,15.8149477 L5.04437724,15.8149477 L5.04933044,15.7260218 C5.06253895,15.5256516 5.0873049,15.3751488 5.12362832,15.2745133 C5.19876106,15.0877876 5.31216814,14.9406195 5.46384956,14.8330088 C5.61553098,14.7254867 5.7860177,14.6717257 5.97530973,14.6717257 C6.25787611,14.6717257 6.44973451,14.7630973 6.55088496,14.9458407 C6.64600208,15.1178344 6.69635821,15.3593214 6.70195333,15.6703017 L6.70247788,15.7294248 L6.70247788,17.5222566 C6.70247788,17.9526106 6.87747787,18.1677876 7.22747788,18.1677876 C7.38827433,18.1677876 7.51725664,18.1133628 7.61442478,18.0045133 C7.70519764,17.9028377 7.75360983,17.7560263 7.75966136,17.564079 L7.76030973,17.5222566 L7.76030973,15.4883628 C7.76030973,15.2834956 7.74734513,15.1026548 7.72141593,14.9458407 C7.69548673,14.7889381 7.64495575,14.6469912 7.56982301,14.52 C7.45053097,14.3022123 7.28650443,14.1362831 7.07774336,14.0222124 C6.8690708,13.9081416 6.6299115,13.8511062 6.36026549,13.8511062 C6.18141593,13.8511062 6.01420354,13.8738053 5.85862832,13.9192035 C5.7030531,13.9645132 5.5611062,14.0325664 5.43278761,14.1233628 C5.31872664,14.2039921 5.20207856,14.310248 5.08284333,14.4421305 L5.03800885,14.4927876 L5.03800885,12.9177876 C5.03800885,12.7051327 4.99070797,12.5443805 4.89610619,12.435531 C4.80150442,12.3265929 4.6699115,12.2721239 4.50132743,12.2721239 Z M10.6926106,13.8432743 C10.3736726,13.8432743 10.0832743,13.8944691 9.82141593,13.9968584 C9.55955752,14.0993363 9.33920354,14.2465045 9.16035398,14.4383628 C8.98141593,14.6302212 8.84530974,14.8603098 8.7520354,15.1286283 C8.65867257,15.3969469 8.61199115,15.6879646 8.61199115,16.0016814 C8.61199115,16.6679646 8.80123894,17.1955752 9.17973451,17.5845133 C9.55831858,17.9733628 10.0885398,18.1677876 10.7703982,18.1677876 C11.0685398,18.1677876 11.3323451,18.1288938 11.5618142,18.0511062 C11.7912832,17.9734071 11.9818142,17.8755753 12.1334071,17.7576106 C12.2850885,17.639646 12.3985398,17.5164601 12.4737611,17.3880531 C12.5489823,17.2597345 12.5865929,17.1476107 12.5865929,17.0516814 C12.5865929,16.9428319 12.5528761,16.858584 12.4854425,16.7989381 C12.4180088,16.7392921 12.3298673,16.709469 12.2210177,16.709469 C12.1311062,16.709469 12.0596542,16.7278935 12.0066618,16.7647427 L11.9876549,16.7794248 L11.8753062,16.8844739 L11.7762425,16.9754973 L11.6904637,17.0524951 L11.664823,17.0750442 C11.5819027,17.1476107 11.4911504,17.2156637 11.3925664,17.2792035 C11.2940708,17.3427434 11.1923451,17.3894247 11.0873894,17.4192478 C10.9823451,17.4490708 10.8662832,17.4639823 10.7392035,17.4639823 C10.55,17.4639823 10.3769469,17.4173008 10.2200442,17.3239381 C10.0632301,17.2305753 9.93752213,17.0918585 9.84292035,16.9077876 C9.75551396,16.7378761 9.70735561,16.5436844 9.69844531,16.3252123 L9.6970354,16.2700885 L11.7736726,16.2700885 L11.8249623,16.269625 C12.0777658,16.2649893 12.2758905,16.2255863 12.4193363,16.1514159 C12.5722566,16.0723009 12.6487168,15.8992477 12.6487168,15.6322566 C12.6487168,15.344469 12.574823,15.0618584 12.4270354,14.7844248 C12.2792478,14.5069912 12.0569469,14.2807965 11.7601327,14.1058407 C11.4632301,13.9307964 11.1073894,13.8432743 10.6926106,13.8432743 Z M10.6575664,14.5822566 C10.935,14.5822566 11.1586283,14.6723452 11.3284513,14.8525221 C11.4901875,15.0241192 11.5866658,15.2786334 11.617886,15.6160643 L11.6220796,15.6673009 L9.6970354,15.6673009 C9.73331858,15.3095133 9.83637169,15.0392035 10.0061947,14.8563717 C10.1760177,14.6736283 10.3931416,14.5822566 10.6575664,14.5822566 Z M29.3552655,0 C32.6520796,0 35.3287168,2.67663717 35.3287168,5.97345133 C35.3287168,9.27026549 32.6520796,11.9469027 29.3552655,11.9469027 C26.0584513,11.9469027 23.3818142,9.27026549 23.3818142,5.97345133 C23.3818142,2.67663717 26.0584513,0 29.3552655,0 Z" id="Shape"></path>
        </g>
    </g>
</svg>