<svg viewBox="0 0 512 512" fill="current" xmlns="http://www.w3.org/2000/svg">
    <path d="M256,0 C397.384896,0 512,114.615104 512,256 C512,397.384896 397.384896,512 256,512 C114.615104,512 0,397.384896 0,256 C0,114.615104 114.615104,0 256,0 Z M256,85 C235.896813,85 219.684272,101.011509 219.362031,121.034873 L219.357143,121.642857 L219.357143,219.357143 L121.642857,219.357143 C101.336607,219.357143 85,235.69375 85,256 C85,276.103188 101.011509,292.315728 121.034873,292.637969 L121.642857,292.642857 L219.357143,292.642857 L219.357143,390.357143 C219.357143,410.663393 235.69375,427 256,427 C276.103188,427 292.315728,410.988491 292.637969,390.965127 L292.642857,390.357143 L292.642857,292.642857 L390.357143,292.642857 C410.663393,292.642857 427,276.30625 427,256 C427,235.896813 410.988491,219.684272 390.965127,219.362031 L390.357143,219.357143 L292.642857,219.357143 L292.642857,121.642857 C292.642857,101.336607 276.30625,85 256,85 Z"/>
</svg>