<svg viewBox="0 0 145 179" fill="current" xmlns="http://www.w3.org/2000/svg">
    <path d="M79.43,89.64 C115.15,89.64 144.38,118.86 144.38,154.59 L144.38,160.53 C144.38,170.64 136.13,178.89 126.01,178.89 L19.3,178.89 C9.18,178.89 0.93,170.64 0.93,160.53 L0.93,154.59 C0.93,118.87 30.15,89.64 65.88,89.64 L79.43,89.64 Z M80.172043,105.5 L65.827957,105.5 L65.827957,126.704301 L44.623656,126.704301 L44.623656,142.295699 L65.827957,142.295699 L65.827957,163.5 L80.172043,163.5 L80.172043,142.295699 L101.376344,142.295699 L101.376344,126.704301 L80.172043,126.704301 L80.172043,105.5 Z M72.67,0.83 C95.45,0.83 113.91,19.29 113.91,42.07 C113.91,64.85 95.45,83.31 72.67,83.31 C49.89,83.31 31.43,64.85 31.43,42.07 C31.43,19.29 49.89,0.83 72.67,0.83 Z" />
</svg>