<svg viewBox="0 0 640 512" fill="current" xmlns="http://www.w3.org/2000/svg">
    <path d="M269.7,304 C368.2,304 448,383.8 448,482.3 C448,498.7 434.7,512 418.3,512 L29.7,512 C13.3,512 0,498.7 0,482.3 C0,383.8 79.8,304 178.3,304 L269.7,304 Z M478.7,320 C567.8,320 640,392.2 640,481.3 C640,498.3 626.2,512 609.3,512 L471.4,512 C476.8,502.6 480,491.7 480,480 L480,472 C480,411.3 452.9,356.8 410.2,320.2 C412.6,320.1 414.9,320 417.3,320 L478.7,320 Z M224,320 C213.663587,320 205.325862,328.225372 205.145829,338.517114 L205.142857,338.857143 L205.142857,389.142857 L154.857143,389.142857 C144.407143,389.142857 136,397.55 136,408 C136,418.336413 144.225372,426.674138 154.517114,426.854171 L154.857143,426.857143 L205.142857,426.857143 L205.142857,477.142857 C205.142857,487.592857 213.55,496 224,496 C234.336413,496 242.674138,487.774628 242.854171,477.482886 L242.857143,477.142857 L242.857143,426.857143 L293.142857,426.857143 C303.592857,426.857143 312,418.45 312,408 C312,397.663587 303.774628,389.325862 293.482886,389.145829 L293.142857,389.142857 L242.857143,389.142857 L242.857143,338.857143 C242.857143,328.407143 234.45,320 224,320 Z M224,0 C294.692448,0 352,57.307552 352,128 C352,198.692448 294.692448,256 224,256 C153.307552,256 96,198.692448 96,128 C96,57.307552 153.307552,0 224,0 Z M432,32 C493.9,32 544,82.1 544,144 C544,205.9 493.9,256 432,256 C401,256 373,243.4 352.7,223.1 C372.4,196.5 384,163.6 384,128 C384,101.2 377.4,75.9 365.7,53.7 C384.3,40.1 407.2,32 432,32 Z" />
</svg>