<svg viewBox="0 0 512 512" version="1.1" xmlns="http://www.w3.org/2000/svg">
    <g id="Page-1" stroke="none" stroke-width="1" fill="none" fill-rule="evenodd">
        <path d="M256,0 C397.384896,0 512,114.615104 512,256 C512,397.384896 397.384896,512 256,512 C114.615104,512 0,397.384896 0,256 C0,114.615104 114.615104,0 256,0 Z M344,102 C330.7,102 320,114.873437 320,130.875 L320,227.125 L192,227.125 L192,130.875 C192,114.873437 181.3,102 168,102 C154.7,102 144,114.873437 144,130.875 L144,381.125 C144,397.126563 154.7,410 168,410 C181.3,410 192,397.126563 192,381.125 L192,284.875 L320,284.875 L320,381.125 C320,397.126563 330.7,410 344,410 C357.3,410 368,397.126563 368,381.125 L368,130.875 C368,114.873437 357.3,102 344,102 Z" id="himoot" fill="current"></path>
    </g>
</svg>