<svg viewBox="0 0 600 600" version="1.1" xmlns="http://www.w3.org/2000/svg">
    <g id="Page-1" stroke="none" stroke-width="1" fill="none" fill-rule="evenodd">
        <path d="M300,0 C465.685425,0 600,134.314575 600,300 C600,465.685425 465.685425,600 300,600 C134.314575,600 0,465.685425 0,300 C0,134.314575 134.314575,0 300,0 Z M204.782528,150 L142,150 L142,450 L204.782528,450 L204.782528,315.361446 L321.765799,315.361446 L321.765799,450 L385,450 L385,150 L321.765799,150 L321.765799,262.951807 L204.782528,262.951807 L204.782528,150 Z M449.515528,295 L402,295 L402,450 L432.046584,450 L432.046584,344.254518 L460.695652,450 L492.838509,450 L521.720497,343.787651 L521.720497,450 L552,450 L552,295 L505.416149,295 L477.465839,408.682229 L449.515528,295 Z" id="Shape" fill="current"></path>
    </g>
</svg>