<svg viewBox="0 0 700 700" version="1.1" xmlns="http://www.w3.org/2000/svg">
    <g id="Page-1" stroke="none" stroke-width="1" fill="none" fill-rule="evenodd">
        <path d="M350,0 C543.299662,0 700,156.700338 700,350 C700,543.299662 543.299662,700 350,700 C156.700338,700 0,543.299662 0,350 C0,158.633334 153.582001,3.13766668 344.21211,0.0468900003 L350,0 Z M592.257576,349.386667 C587.534998,349.386667 583.056691,349.981134 578.822655,351.170068 C574.58862,352.359002 570.720991,354.060408 567.219769,356.274286 C563.718547,358.488163 560.6448,361.132517 557.998528,364.207347 C555.352256,367.282177 553.255594,370.705488 551.708543,374.477279 L549.510101,374.477279 C546.823117,366.523719 542.324454,360.35356 536.014113,355.966803 C529.703771,351.580045 521.78531,349.386667 512.25873,349.386667 C507.861847,349.386667 503.688879,349.960635 499.739827,351.108571 C495.790774,352.256508 492.228485,353.916916 489.052958,356.089796 C485.877431,358.262676 483.088668,360.907029 480.686667,364.022857 C478.284666,367.138685 476.391563,370.623492 475.007359,374.477279 L472.808918,374.477279 L472.808918,352.338503 L438.366667,352.338503 L438.366667,488 L473.908139,488 L473.908139,406.332517 C473.908139,402.560726 474.498461,399.075918 475.679105,395.878095 C476.85975,392.680272 478.508581,389.933424 480.625599,387.637551 C482.742617,385.341678 485.246397,383.537778 488.136941,382.22585 C491.027484,380.913923 494.223367,380.257959 497.724589,380.257959 C504.727032,380.257959 510.182424,382.22585 514.090765,386.161633 C517.999105,390.097415 519.953276,395.673107 519.953276,402.888707 L519.953276,488 L554.151255,488 L554.151255,404.979592 C554.151255,401.371791 554.700866,398.050975 555.800087,395.017143 C556.899307,391.983311 558.487071,389.379955 560.563377,387.207075 C562.639683,385.034195 565.143463,383.332789 568.074719,382.102857 C571.005974,380.872925 574.262924,380.257959 577.84557,380.257959 C592.827542,380.257959 600.318528,388.293515 600.318528,404.364626 L600.318528,488 L635.86,488 L635.86,394.89415 C635.86,387.924535 634.842203,381.631383 632.806609,376.014694 C630.771015,370.398005 627.880471,365.621769 624.134978,361.685986 C620.389485,357.750204 615.809399,354.716372 610.394719,352.58449 C604.980038,350.452608 598.934324,349.386667 592.257576,349.386667 Z M219.041797,212 L161.14,212 L161.14,488 L219.041797,488 L219.041797,372.665281 L343.66487,372.665281 L343.66487,488 L401.566667,488 L401.566667,212 L343.66487,212 L343.66487,323.318087 L219.041797,323.318087 L219.041797,212 Z" id="Shape" fill="current">
        </path>
    </g>
</svg>