<svg viewBox="0 0 600 600" version="1.1" xmlns="http://www.w3.org/2000/svg">
    <g id="Page-1" stroke="none" stroke-width="1" fill="none" fill-rule="evenodd">
        <path d="M300,0 C465.685425,0 600,134.314575 600,300 C600,465.685425 465.685425,600 300,600 C134.314575,600 0,465.685425 0,300 C0,134.314575 134.314575,0 300,0 Z M236.972644,104.571429 L139.31307,104.571429 C128.151976,104.571429 122.571429,110.167347 122.571429,121.359184 L122.571429,479.497959 C122.571429,490.689796 128.151976,496.285714 139.31307,496.285714 L237.326955,496.285714 C248.251842,496.166019 253.714286,490.570734 253.714286,479.497959 L253.714286,426.772953 C253.714286,407.693094 248.25587,389.011465 237.983293,372.933057 L204.014437,319.765759 L204.014437,319.765759 C199.564088,312.808067 197.142857,306.49913 197.142857,300.428571 C197.142857,293.800814 199.677596,286.995991 204.372892,279.81889 C204.526581,279.586197 204.678624,279.35242 204.829007,279.117577 L237.927791,227.429522 C248.235819,211.332196 253.714286,192.617751 253.714286,173.502853 L253.714286,121.359184 L253.714286,121.359184 C253.714286,110.167347 248.133739,104.571429 236.972644,104.571429 Z M459.598622,104.571429 L348.392019,104.571429 C340.461321,104.617532 334.671425,105.642943 331.022331,107.649184 C327.290303,109.70102 323.371673,114.08449 319.266442,120.799592 L220.740899,284.76 C217.008871,290.72898 215.142857,295.951837 215.142857,300.428571 C215.142857,304.159184 216.82227,308.822449 220.181095,314.418367 L319.826247,480.617143 C323.558275,486.959184 327.383604,491.156122 331.302233,493.207959 C335.220863,495.259796 341.47201,496.285714 350.055675,496.285714 L463.136127,496.285714 C472.092995,496.285714 476.571429,493.487755 476.571429,487.891837 C476.571429,485.280408 475.45182,482.109388 473.212603,478.378776 L390.849064,350.567695 C369.446011,317.354608 369.606212,274.653155 391.257867,241.601595 L469.293974,122.478367 L469.293974,122.478367 C471.533191,118.374694 472.652799,115.203673 472.652799,112.965306 C472.652799,107.449329 468.301407,104.651941 459.598622,104.571429 Z" id="Shape" fill="current">
        </path>
    </g>
</svg>