<svg viewBox="0 0 397 397" version="1.1" xmlns="http://www.w3.org/2000/svg">
    <g id="Page-1" stroke="none" stroke-width="1" fill="none" fill-rule="evenodd">
        <path d="M304.005953,154.012143 L305.416831,154.000706 L307.016962,154.012388 C356.35265,154.82085 396.196051,195.095536 396.987986,244.96102 L397,246.513379 L397,387 C397,392.522847 392.371277,397 386.661458,397 L224.346354,397 C218.636535,397 214.007812,392.522847 214.007812,387 L214.007812,246.436238 L214.02007,244.945757 C214.819974,195.082231 254.668327,154.81255 304.005953,154.012143 Z M306.020833,0 C345.418584,0 377.356771,32.6832128 377.356771,73 C377.356771,113.316787 345.418584,146 306.020833,146 C266.623082,146 234.684896,113.316787 234.684896,73 C234.684896,32.6832128 266.623082,0 306.020833,0 Z M207.804687,90 L207.804687,181.328468 L207.792529,182.860961 C206.999148,232.830459 167.475668,273.185723 118.54028,273.987831 L117.054538,274 L90.0925392,274 L88.6026936,273.987675 C39.5331213,273.175241 0,232.302095 0,182 C0,131.697905 39.5331217,90.8247579 88.6026945,90.0123251 L90.0925392,90 L207.804687,90 Z" id="Shape" fill="current" fill-rule="nonzero"></path>
    </g>
</svg>