<svg viewBox="0 0 183 397" fill="current" xmlns="http://www.w3.org/2000/svg">
    <path d="M90.005953,154.012143 L91.416831,154.000706 L93.016962,154.012388 C142.35265,154.82085 182.196051,195.095536 182.987986,244.96102 L183,246.513379 L183,387 C183,392.522847 178.371277,397 172.661458,397 L10.346354,397 C4.636535,397 0.007812,392.522847 0.007812,387 L0.007812,246.436238 L0.02007,244.945757 C0.819974,195.082231 40.668327,154.81255 90.005953,154.012143 Z M92.020833,0 C131.418584,0 163.356771,32.6832128 163.356771,73 C163.356771,113.316787 131.418584,146 92.020833,146 C52.623082,146 20.684896,113.316787 20.684896,73 C20.684896,32.6832128 52.623082,0 92.020833,0 Z" />
</svg>