<svg xmlns="http://www.w3.org/2000/svg" fill="current" viewBox="0 0 386 512">
    <path d="M32.0824335,32 C32.0824335,14.3 46.3824335,0 64.0824335,0 L320.082434,0 C337.782434,0 352.082434,14.3 352.082434,32 C352.082434,49.7 337.782434,64 320.082434,64 L290.582434,64 L301.982434,212.2 C338.682434,232.1 367.682434,265.4 381.482434,306.9 L382.482434,309.9 C385.782434,319.7 384.082434,330.4 378.082434,338.7 C372.082434,347 362.382434,352 352.082434,352 L32.0824335,352 C21.7824335,352 12.1824335,347.1 6.08243352,338.7 C-0.0175664752,330.3 -1.61756648,319.6 1.68243352,309.9 L2.68243352,306.9 C16.4824335,265.4 45.4824335,232.1 82.1824335,212.2 L93.5824335,64 L64.0824335,64 C46.3824335,64 32.0824335,49.7 32.0824335,32 Z M160.082434,337 L224.082434,337 L224.082434,468.25 C224.082434,492.449219 209.782434,512 192.082434,512 C174.382434,512 160.082434,492.449219 160.082434,468.25 L160.082434,337 Z"/>
</svg>