<svg viewBox="0 0 411 511" xmlns="http://www.w3.org/2000/svg">
    <path d="M205,0 C298.888407,0 375,76.1115925 375,170 C375,229.515151 344.416869,281.887229 298.109082,312.257759 L314.2,329.8 L401.9,425.5 C415.661,440.449 412.07423,464.2189 394.729796,474.589853 L394.2,474.9 L339.7,506 C326.632,513.425 310.03564,510.75497 300.00203,499.542388 L299.7,499.2 L205.325,390.947 L205.325901,391.05 L205.163,390.882 L205,391.05 L205,390.947 L110.625901,499.2 L110.323871,499.542388 C100.390597,510.642844 84.0251716,513.370745 71.0189891,506.219723 L70.6259006,506 L16.1259006,474.9 L15.5961043,474.589853 C-1.57488502,464.32261 -5.26198819,440.923058 8.01827138,425.951094 L8.42590064,425.5 L96.1259006,329.8 L112.093795,312.390608 C65.6724765,282.040102 35,229.602021 35,170 C35,76.1115925 111.111593,0 205,0 Z" fill="#DC2626" />
    <path d="M205,37 C276.797017,37 335,95.2029825 335,167 C335,238.797017 276.797017,297 205,297 C133.202983,297 75,238.797017 75,167 C75,95.2029825 133.202983,37 205,37 Z" fill="#F87171" />
    <path d="M205,73 C256.914766,73 299,115.085234 299,167 C299,218.914766 256.914766,261 205,261 C153.085234,261 111,218.914766 111,167 C111,115.085234 153.085234,73 205,73 Z" fill="#DC2626" />
</svg>