<svg xmlns="http://www.w3.org/2000/svg" fill="current" viewBox="0 0 512 512">
    <path d="M0,64 C0,28.7 28.7,0 64,0 L448,0 C483.3,0 512,28.7 512,64 L512,352 C512,387.3 483.3,416 448,416 L309.3,416 L185.6,508.8 C180.8,512.4 174.3,513 168.8,510.3 C163.3,507.6 160,502.1 160,496 L160,416 L64,416 C28.7,416 0,387.3 0,352 L0,64 Z M167.906275,232.043725 L286.006275,232.043725 L255.006275,263.043725 C245.606275,272.443725 245.606275,287.643725 255.006275,296.943725 C264.406275,306.243725 279.606275,306.343725 288.906275,296.943725 L360.906275,224.943725 C370.306275,215.543725 370.306275,200.343725 360.906275,191.043725 L288.906275,119.043725 C279.506275,109.643725 264.306275,109.643725 255.006275,119.043725 C245.706275,128.443725 245.606275,143.643725 255.006275,152.943725 L286.006275,183.943725 L167.906275,183.943725 C154.606275,183.943725 143.906275,194.643725 143.906275,207.943725 C143.906275,221.243725 154.606275,231.943725 167.906275,231.943725 L167.906275,232.043725 Z"/>
</svg>