<svg viewBox="0 0 895 101" version="1.1" xmlns="http://www.w3.org/2000/svg">
    <g id="Page-1" stroke="none" stroke-width="1" fill="none" fill-rule="evenodd">
        <g id="spacehey-tibush" fill="current" fill-rule="nonzero">
            <g id="Group-2">
                <path d="M135.471963,69.2173913 C144.443925,69.2173913 151.172897,64.0254507 151.172897,57.0307529 C151.172897,51.1898197 147.247664,47.5121951 140.098131,46.4305408 L133.228972,45.4209968 C129.514019,44.8441145 128.042056,43.7624602 128.042056,41.4549311 C128.042056,39.0752916 130.495327,37.416755 134.140187,37.416755 C137.925234,37.416755 141.5,38.6426299 145.425234,41.1664899 L149.771028,35.1813362 C145.285047,32.0805938 140.238318,30.4941676 134.981308,30.4941676 C125.869159,30.4941676 120.121495,35.1092259 120.121495,42.1760339 C120.121495,48.1611877 123.836449,51.8388123 131.056075,52.9925769 L137.925234,54.0021209 C141.28972,54.5068929 142.761682,55.7327678 142.761682,57.8960764 C142.761682,60.4920467 139.817757,62.2948038 135.331776,62.2948038 C131.406542,62.2948038 127.621495,60.8525981 123.485981,57.8960764 L119,63.9533404 C123.135514,67.3425239 128.883178,69.2173913 135.471963,69.2173913 Z M164.981308,83.2067869 L164.981308,65.8282078 C167.925234,67.9194062 171.429907,69.0010604 175.14486,69.0010604 C185.658879,69.0010604 193.78972,60.6362672 193.78972,49.8197243 C193.78972,39.0752916 185.728972,30.6383881 175.35514,30.6383881 C171.429907,30.6383881 167.785047,31.9363733 164.841121,34.388123 L164.841121,31.1431601 L156.079439,31.1431601 L156.079439,83.2067869 L164.981308,83.2067869 Z M174.023364,61.2131495 C170.448598,61.2131495 167.154206,59.8430541 164.981308,57.4634146 L164.981308,42.3202545 C167.154206,39.7963945 170.378505,38.4984093 174.023364,38.4984093 C180.261682,38.4984093 185.098131,43.4019088 185.098131,49.8918346 C185.098131,56.3096501 180.331776,61.2131495 174.023364,61.2131495 Z M211.453271,69.145281 C215.588785,69.145281 219.023364,68.0636267 222.107477,65.6839873 L222.107477,68.4962884 L230.869159,68.4962884 L230.869159,44.1230117 C230.869159,35.397667 225.331776,30.4220573 215.588785,30.4220573 C210.471963,30.4220573 205.425234,31.7200424 199.817757,34.388123 L203.042056,41.1664899 C207.598131,39.0031813 211.03271,38.0657476 214.116822,38.0657476 C219.373832,38.0657476 222.107477,40.3732768 222.107477,44.9883351 L222.107477,48.0169671 C219.303738,46.9353128 216.149533,46.4305408 212.925234,46.4305408 C203.672897,46.4305408 198.205607,50.6129374 198.205607,57.6797455 C198.205607,64.4581124 203.602804,69.145281 211.453271,69.145281 Z M213.696262,62.5111347 C209.420561,62.5111347 206.616822,60.5641569 206.616822,57.5355249 C206.616822,54.3626723 209.420561,52.4878049 214.046729,52.4878049 C217.060748,52.4878049 219.654206,52.9925769 222.107477,54.1463415 L222.107477,59.7709438 C219.794393,61.6458112 216.990654,62.5111347 213.696262,62.5111347 Z M255.682243,69.2173913 C261.219626,69.2173913 266.546729,66.7656416 270.331776,62.6553552 L265.004673,56.8865323 C262.271028,59.8430541 259.397196,61.2131495 256.03271,61.2131495 C250.074766,61.2131495 245.518692,56.3096501 245.518692,49.8197243 C245.518692,43.4019088 250.004673,38.426299 255.82243,38.426299 C259.327103,38.426299 262.411215,39.9406151 265.074766,42.9692471 L270.542056,36.9840933 C266.827103,32.8016967 261.359813,30.4220573 255.682243,30.4220573 C245.028037,30.4220573 236.757009,38.931071 236.757009,49.8197243 C236.757009,60.7804878 245.028037,69.2173913 255.682243,69.2173913 Z M293.182243,69.2173913 C298.859813,69.2173913 303.275701,67.5588547 307.691589,63.9533404 L301.873832,58.4008484 C299.911215,60.3478261 296.897196,61.5015907 293.602804,61.5015907 C288.205607,61.5015907 284,57.8960764 282.808411,52.8483563 L310.214953,52.8483563 L310.214953,50.4687169 C310.214953,39.0752916 302.574766,30.5662778 292.341121,30.5662778 C281.96729,30.5662778 273.836449,39.0031813 273.836449,49.8197243 C273.836449,60.7083775 282.247664,69.2173913 293.182243,69.2173913 Z M301.453271,46.2863203 L282.738318,46.2863203 C283.859813,41.3107105 287.434579,38.1378579 292.130841,38.1378579 C296.686916,38.1378579 300.401869,41.5270414 301.453271,46.2863203 Z M325.214953,68.4962884 L325.214953,42.3923648 C326.96729,39.7963945 329.700935,38.3541888 333.065421,38.3541888 C337.901869,38.3541888 341.056075,41.5270414 341.056075,46.6468717 L341.056075,68.4962884 L349.88785,68.4962884 L349.88785,45.2767762 C349.88785,36.5514316 344,30.4220573 335.588785,30.4220573 C331.523364,30.4220573 327.948598,31.7921527 325.214953,34.388123 L325.214953,16 L316.313084,18.019088 L316.313084,68.4962884 L325.214953,68.4962884 Z M375.121495,69.2173913 C380.799065,69.2173913 385.214953,67.5588547 389.630841,63.9533404 L383.813084,58.4008484 C381.850467,60.3478261 378.836449,61.5015907 375.542056,61.5015907 C370.14486,61.5015907 365.939252,57.8960764 364.747664,52.8483563 L392.154206,52.8483563 L392.154206,50.4687169 C392.154206,39.0752916 384.514019,30.5662778 374.280374,30.5662778 C363.906542,30.5662778 355.775701,39.0031813 355.775701,49.8197243 C355.775701,60.7083775 364.186916,69.2173913 375.121495,69.2173913 Z M383.392523,46.2863203 L364.67757,46.2863203 C365.799065,41.3107105 369.373832,38.1378579 374.070093,38.1378579 C378.626168,38.1378579 382.341121,41.5270414 383.392523,46.2863203 Z M401.476636,84 C408.99555,84 413.188053,80.787395 416.79329,72.3002646 L434,31.1431601 L424.397196,31.1431601 L413.742991,57.3913043 L404.280374,31.1431601 L394.46729,31.1431601 L408.696262,68.7847296 L407.85514,70.8038176 C406.453271,74.2651113 404.070093,75.9957582 400.635514,75.9957582 C399.233645,75.9957582 398.392523,75.9236479 397.341121,75.7073171 L397.341121,83.6394486 C398.32243,83.8557794 399.864486,84 401.476636,84 Z" id="Shape"></path>
                <path d="M76.5758067,39.1819305 L76.9311918,39.1790209 L77.3342474,39.181993 C89.7613728,39.3876721 99.797494,49.6338769 99.9969737,62.320058 L100,62.7149905 L100,98.4559194 C100,99.8609763 98.8340749,101 97.3958333,101 L56.5104167,101 C55.0721751,101 53.90625,99.8609763 53.90625,98.4559194 L53.90625,62.6953653 L53.9093375,62.3161749 C54.1108247,49.6304921 64.1481932,39.3855605 76.5758067,39.1819305 Z M77.0833333,0 C87.0072001,0 95.0520833,8.31487278 95.0520833,18.5717884 C95.0520833,28.8287041 87.0072001,37.1435768 77.0833333,37.1435768 C67.1594666,37.1435768 59.1145833,28.8287041 59.1145833,18.5717884 C59.1145833,8.31487278 67.1594666,0 77.0833333,0 Z M52.34375,22.8967254 L52.34375,46.1314237 L52.3406875,46.5213023 C52.1408432,59.2339454 42.1853069,69.5006499 29.8590125,69.7047128 L29.4847704,69.7078086 L22.6933348,69.7078086 L22.3180588,69.7046731 C9.95796506,69.4979833 0,59.0995254 0,46.302267 C0,33.5050086 9.95796516,23.1065505 22.3180591,22.899861 L22.6933348,22.8967254 L52.34375,22.8967254 Z" id="Shape"></path>
            </g>
            <path d="M611.922962,71.4587946 L616.442366,84.8733087 C615.021944,85.8043334 613.315044,86.5348297 611.321665,87.0647976 L610.817352,87.1931119 C608.806547,87.682135 606.676776,87.9488749 604.428038,87.9933315 L603.749848,88 C597.133728,88 592.006486,86.3425454 588.368122,83.0276361 L588.076382,82.7552276 C584.51434,79.3461255 582.688794,74.3070464 582.599743,67.6379905 L582.596318,67.1217712 L582.596318,48.7650677 L575,48.7650677 L575,34.4428044 L582.596318,34.4428044 L582.596318,20.2214022 L600.864866,20.2214022 L600.864866,34.4428044 L612.788656,34.4428044 L612.788656,48.7650677 L600.864866,48.7650677 L600.864866,66.9200492 C600.864866,68.755324 601.30496,70.2183321 602.185148,71.3090736 L602.35534,71.5092251 C603.290539,72.5534332 604.523857,73.1062492 606.055293,73.1676732 L606.345931,73.1734317 C608.461184,73.1734317 610.320194,72.601886 611.922962,71.4587946 Z M623.460887,87.0922509 L623.460887,32.4255843 L641.730436,32.4255843 L641.730436,87.0922509 L623.460887,87.0922509 Z M632.595662,26.3739237 C629.396151,26.3739237 626.787178,25.4753732 624.768742,23.6782721 L624.519513,23.4489545 C622.553708,21.5802241 621.52985,19.2792156 621.447942,16.545929 L621.4426,16.1869619 C621.4426,13.4160858 622.384549,11.0774879 624.268446,9.17116817 L624.519513,8.92496925 C626.488738,7.05298893 629.0485,6.07955916 632.198798,6.00467995 L632.595662,6 C635.790256,6 638.396055,6.84911778 640.413061,8.54735334 L640.672809,8.77367774 C642.642034,10.5488315 643.666031,12.804245 643.7448,15.5399183 L643.749723,15.8843788 C643.749723,18.7891759 642.804495,21.2137132 640.914039,23.1579907 L640.672809,23.398524 C638.621534,25.3821238 635.929151,26.3739237 632.595662,26.3739237 Z M686.345681,31.5178352 C690.906891,31.5178352 695.067909,32.5746875 698.828736,34.688392 L699.278114,34.9471095 C703.007567,37.1453622 705.995786,40.2605898 708.242774,44.2927921 L708.508855,44.7810578 C710.700426,48.8927004 711.836797,53.6434522 711.917966,59.0333133 L711.922649,59.6580566 C711.922649,65.0970799 710.867448,69.912582 708.757046,74.1045629 L708.508855,74.5854859 C706.321166,78.7233734 703.392244,81.9442861 699.722091,84.2482241 L699.278114,84.5202952 C695.549303,86.7508752 691.4203,87.909061 686.891105,87.9948525 L686.345681,88 C679.646279,88 674.598037,85.9792887 671.200954,81.9378661 L670.961114,81.6457565 L670.961114,87.0922509 L653.557259,87.0922509 L653.557259,12.2533825 L671.826808,12.2533825 L671.826808,37.1660517 C675.35223,33.400574 680.191854,31.5178352 686.345681,31.5178352 Z M682.500039,72.7699877 C685.586209,72.7699877 688.137516,71.6944137 690.153962,69.5432656 L690.384255,69.2902829 C692.362271,67.0533298 693.3866,63.9879399 693.457244,60.0941132 L693.461168,59.6580566 C693.461168,55.7677034 692.507482,52.6901561 690.60011,50.4254148 L690.384255,50.1771218 C688.408952,47.9756123 685.898788,46.8340889 682.853762,46.7525516 L682.500039,46.7478475 C679.413228,46.7478475 676.861588,47.8078335 674.845118,49.9278055 L674.614824,50.1771218 C672.636808,52.3816552 671.612478,55.3989947 671.541835,59.22914 L671.53791,59.6580566 C671.53791,63.613249 672.491596,66.7400046 674.398969,69.0383234 L674.614824,69.2902829 C676.666099,71.6100861 679.294504,72.7699877 682.500039,72.7699877 Z M756.922759,32.4255843 L775.192307,32.4255843 L775.192307,87.0922509 L757.788453,87.0922509 L757.788453,81.2423124 C755.978269,83.3307286 753.827462,84.9426434 751.336032,86.0780568 L750.864898,86.2853629 C748.340789,87.3570111 745.675812,87.9263242 742.869967,87.9933022 L742.30692,88 C735.744887,88 730.477465,86.0184594 726.504654,82.0553782 L726.201607,81.7466175 C722.284057,77.6703385 720.281754,71.601212 720.194697,63.539238 L720.191729,62.9864699 L720.191729,32.4255843 L738.461278,32.4255843 L738.461278,59.8597786 C738.461278,63.8095455 739.144764,66.7305024 740.511736,68.6226494 L740.672497,68.8364084 C742.088317,70.6438376 744.124155,71.5837009 746.780011,71.655998 L747.115222,71.6605166 C749.884164,71.6605166 752.166059,70.6845048 753.960907,68.7324812 L754.182726,68.4833948 C755.944176,66.4409594 756.856355,63.3512548 756.919264,59.214281 L756.922759,58.7503075 L756.922759,32.4255843 Z M805.865476,88 C801.796957,88 797.784169,87.5460507 793.827113,86.6381522 L792.980026,86.4366544 C788.950972,85.444054 785.67751,84.1617545 783.159639,82.589756 L782.787625,82.3517835 L788.268689,69.2398524 C790.482397,70.6832855 793.087095,71.8484916 796.082783,72.7354708 L796.730701,72.9212792 C799.766058,73.7641891 802.77412,74.2157479 805.754887,74.2759558 L806.442272,74.2829028 C809.250169,74.2829028 811.287968,73.9932038 812.555669,73.4138057 L812.740048,73.3247232 C813.916731,72.7235125 814.53968,71.8691605 814.608897,70.761667 L814.615386,70.5510455 C814.615386,69.40123 813.935442,68.5700092 812.575554,68.0573831 L812.355184,67.9790898 C811.92486,67.8350026 811.422561,67.6922877 810.848288,67.5509451 L810.250023,67.4100599 C810.146313,67.3866552 810.040604,67.3632887 809.932896,67.3399603 L809.262657,67.2004474 L809.262657,67.2004474 L808.544434,67.0618493 C808.420732,67.0388258 808.29503,67.0158405 808.167329,66.9928933 L807.377132,66.8556674 L807.377132,66.8556674 L806.538952,66.7193564 L806.538952,66.7193564 L805.652789,66.5839602 L805.652789,66.5839602 L805.191714,66.5166052 C801.270275,66.0103225 797.902274,65.3551331 795.087711,64.551037 L794.566466,64.398524 C791.795977,63.5681017 789.386963,62.0701476 787.339423,59.9046617 L787.019131,59.5571956 C784.979422,57.2878229 783.923145,54.1431207 783.850298,50.1230891 L783.846251,49.6728167 C783.846251,46.3219899 784.758515,43.3262487 786.583043,40.6855931 L786.826199,40.3431734 C788.730693,37.7333948 791.474005,35.6485254 795.056135,34.0885652 L795.528126,33.8880689 C799.183835,32.3737529 803.530857,31.5850467 808.569193,31.5219502 L809.230287,31.5178352 C812.721362,31.5178352 816.185181,31.8615981 819.621742,32.5491241 L820.480315,32.7281673 C823.979628,33.4875913 826.939376,34.5448288 829.35956,35.8998796 L829.807021,36.1574416 L824.326956,49.1685117 C819.8761,46.5749429 815.067688,45.2318448 809.901721,45.1392173 L809.326254,45.1340713 C806.586154,45.1340713 804.540134,45.4526661 803.188191,46.0898555 L802.980494,46.1931119 C801.713491,46.857608 801.042724,47.7156827 800.968195,48.7673362 L800.961207,48.9667897 C800.961207,50.1804838 801.626416,51.0452409 802.956833,51.5610609 L803.172427,51.6396064 C803.3065,51.6854523 803.448519,51.7314371 803.598483,51.7775609 L804.072208,51.916349 C804.155135,51.9395498 804.240048,51.9627854 804.326947,51.9860556 L804.872176,52.1260941 C804.967019,52.1495033 805.06385,52.1729472 805.162666,52.1964258 L805.779399,52.3377146 L805.779399,52.3377146 L806.4438,52.4798369 C806.558506,52.5035935 806.675199,52.5273847 806.793877,52.5512107 L807.529783,52.6945834 L807.529783,52.6945834 L808.313357,52.8387896 C808.447925,52.8628934 808.58448,52.887032 808.72302,52.9112053 L809.578098,53.0566619 L809.578098,53.0566619 L810.480846,53.202952 C814.536747,53.8380028 817.935197,54.5630191 820.676196,55.378001 L821.153077,55.5227552 C823.825607,56.3508772 826.167074,57.8277506 828.177478,59.9533754 L828.509479,60.3136531 C830.518342,62.5506062 831.558645,65.6472579 831.63039,69.6036081 L831.634376,70.0467405 C831.634376,73.3269159 830.725253,76.2841073 828.907006,78.9183146 L828.653429,79.2755228 C826.748934,81.8853014 823.976244,83.9547323 820.335357,85.4838155 L819.855535,85.6801968 C815.976905,87.2267323 811.313552,88 805.865476,88 Z M873.460606,31.5178352 C879.764608,31.5178352 884.868473,33.4302828 888.7722,37.2551781 L889.086088,37.5694957 C892.939091,41.5122442 894.909377,47.4136725 894.996945,55.2737807 L895,55.8253383 L895,87.0922509 L876.730451,87.0922509 L876.730451,58.9520295 C876.730451,51.6148185 873.973673,47.8840333 868.460116,47.7596738 L868.172473,47.7564576 C865.152386,47.7564576 862.709942,48.7511421 860.845142,50.7405111 L860.624139,50.9840098 C858.800997,53.0588649 857.85687,56.1340964 857.791758,60.2097045 L857.78814,60.6666667 L857.78814,87.0922509 L839.518592,87.0922509 L839.518592,12.2533825 L857.78814,12.2533825 L857.78814,37.4686347 C859.651233,35.6405289 861.824176,34.2261109 864.306971,33.2253805 L864.807662,33.0307503 C867.499378,32.0221402 870.383693,31.5178352 873.460606,31.5178352 Z" id="Shape"></path>
            <path d="M506,0 C511.79957,0 517.368321,0.996961203 522.547435,2.83047855 C529.3,5.21766 535.4,9.0395 540.483,13.92083 L540.472002,13.9210893 C550.038727,23.1181409 556,36.105114 556,50.5 C556,78.39216 533.617,101 506,101 C505.709418,101 505.419416,100.997497 505.130013,100.992511 C499.367992,100.902104 493.838472,99.8129486 488.704158,97.8981737 L487.945405,97.6080048 L487.197074,97.3082066 L486.756469,97.1244186 C486.078091,96.8390934 485.407862,96.5387872 484.745581,96.2242357 L484.646169,96.1753306 C467.881602,88.1685459 456.234767,71.0236804 456.003507,51.1044555 L456.004,51.067 L456,51.07166 L456,50.5 C456,50.239763 456.001945,49.9799895 456.00582,49.7206936 L456.036755,48.545318 L456.072961,47.7479614 L456.133207,46.7817174 L456.170437,46.2996592 C456.682334,40.0039769 458.335098,34.0387347 460.917,28.61633 L460.928969,28.6110843 C469.000389,11.6814935 486.147928,0 506,0 Z M535.803937,14.1500291 C523.192901,15.0740692 510.793846,18.4076682 499.172442,22.0224295 L496.933,22.725 C495.85,30.21516 495.283,37.875 495.283,45.66816 C495.283,63.8817414 498.335094,81.3724478 503.945681,97.6715549 C504.627438,97.7024214 505.312005,97.7175 506,97.7175 C508.883967,97.7175 511.707679,97.4523306 514.448531,96.944893 C513.913735,95.5265784 513.412534,94.0010849 512.932098,92.4784752 L511.995111,89.4697122 L511.540255,88.0293607 C511.314388,87.3259711 511.090504,86.6508183 510.867,86.01766 C524.767,90.698 537.5,75.83383 535.417,69.87483 C531.683,59.16883 512.617,68.35983 507.3,76.47316 C502.433,56.07116 502.317,43.44616 507.133,27.45483 C507.851268,26.8095662 509.377181,26.0518733 511.296777,25.3717692 L511.915568,25.1598003 L512.557636,24.9543194 C512.884006,24.8534225 513.218018,24.7554574 513.558042,24.6611719 L514.245625,24.4777287 L514.946344,24.3054278 C518.007073,23.5848527 521.356214,23.2155714 523.933,23.6845 C515.583,38.5315 512.733,50.51616 513.317,61.67666 C513.77492,61.1575604 514.48677,60.5681551 515.394229,59.9588269 L515.863989,59.6527357 C516.430431,59.2942367 517.060126,58.9318158 517.741499,58.5754735 L518.33792,58.2717593 L518.813393,58.0408088 L518.813393,58.0408088 L519.302173,57.8130923 C519.384704,57.7754446 519.467759,57.7379582 519.551322,57.7006465 L520.058676,57.4789789 C520.14421,57.4424192 520.230222,57.4060607 520.316696,57.3699169 L520.84096,57.1557359 L520.84096,57.1557359 L521.375572,56.9473446 L521.375572,56.9473446 L521.919794,56.7453818 L521.919794,56.7453818 L522.472886,56.5504867 C522.565766,56.5186286 522.658985,56.4870916 522.752527,56.4558891 L523.317536,56.2727932 L523.317536,56.2727932 L523.889566,56.0983621 C523.985449,56.0700479 524.081593,56.0421212 524.177983,56.0145956 L524.759158,55.8543598 L524.759158,55.8543598 L525.345504,55.7043863 C525.541732,55.6561764 525.7387,55.6097834 525.936282,55.5653138 L526.530753,55.4377813 C526.928134,55.3567483 527.327483,55.2838347 527.727815,55.2198922 L528.328926,55.1308134 C534.74601,54.254681 541.288405,55.7842214 543.917,63.20883 C545.487327,67.6545929 545.589306,73.1796147 543.483199,78.6847254 C549.301997,70.8121343 552.75,61.0531967 552.75,50.5 C552.75,35.8995048 546.150652,22.8198277 535.803937,14.1500291 Z M496.933,22.725 L494.050928,24.2594426 L492.148544,25.2815408 L490.261735,26.3056388 L488.390826,27.334043 L487.461435,27.8505807 L487.461435,27.8505807 L485.614984,28.8897686 C476.117872,34.2829394 467.289863,40.0794113 459.332139,47.7106026 C459.277095,48.6339815 459.25,49.5638466 459.25,50.5 C459.25,66.9078786 467.573989,81.3846647 480.181867,89.849856 C479.961554,87.0541497 479.85,84.2282279 479.85,81.37166 C479.85,60.0620825 485.95726,40.1927318 496.479355,23.441017 L496.933,22.725 Z M506,3.2825 C488.737277,3.2825 473.633483,12.7751758 465.536218,26.8653588 C472.402501,24.6372525 479.622544,23.84263 487.080273,23.3294475 L489.031083,23.2012006 L491.976516,23.0228293 L496.933,22.725 C497.391191,22.2797664 497.854589,21.832445 498.322979,21.3838523 L499.742909,20.0350767 C505.480808,14.6312508 511.906492,9.16193539 518.647462,5.03807431 C514.623536,3.89446759 510.381302,3.2825 506,3.2825 Z" id="Shape"></path>
        </g>
    </g>
</svg>