<svg viewBox="0 0 576 78" version="1.1" xmlns="http://www.w3.org/2000/svg">
    <g id="Page-1" stroke="none" stroke-width="1" fill="none" fill-rule="evenodd">
        <g fill="current" fill-rule="nonzero">
            <path d="M166.510312,55.3095238 L170,65.6011905 C168.903212,66.3154762 167.585218,66.8759158 166.046017,67.2825092 L165.656608,67.3809524 C164.103951,67.7561328 162.459434,67.9607766 160.723056,67.9948839 L160.199387,68 C155.090706,68 151.131672,66.7283945 148.322285,64.1851834 L148.097016,63.9761905 C145.346561,61.3607143 143.936953,57.4947135 143.868192,52.3781882 L143.865547,51.9821429 L143.865547,37.8988095 L138,37.8988095 L138,26.9107143 L143.865547,26.9107143 L143.865547,16 L157.97173,16 L157.97173,26.9107143 L167.178764,26.9107143 L167.178764,37.8988095 L157.97173,37.8988095 L157.97173,51.827381 C157.97173,53.2354108 158.311551,54.3578363 158.991194,55.1946573 L159.122609,55.3482143 C159.844729,56.1493347 160.797044,56.5734573 161.979552,56.6205821 L162.20397,56.625 C163.837277,56.625 165.272724,56.1865079 166.510312,55.3095238 Z M176,67 L176,25 L190,25 L190,67 L176,67 Z M182.499619,20 C180.061309,20 178.073041,19.2943525 176.534815,17.8830574 L176.34488,17.7029703 C174.846762,16.2354235 174.066493,14.4284012 174.004071,12.2819032 L174,12 C174,9.8239824 174.717848,7.98744041 176.153544,6.49037404 L176.34488,6.2970297 C177.845603,4.82693069 179.796368,4.06247921 182.197174,4.00367525 L182.499619,4 C184.934182,4 186.920032,4.6668271 188.457169,6.0004813 L188.65512,6.17821782 C190.155843,7.57227723 190.936219,9.34349307 190.996248,11.4918653 L191,11.7623762 C191,14.0435644 190.279653,15.947596 188.838958,17.4744713 L188.65512,17.6633663 C187.091866,19.2211221 185.040033,20 182.499619,20 Z M223.841811,24.0053262 C227.436676,24.0053262 230.716134,24.8285219 233.680185,26.4749131 L234.034358,26.6764314 C236.973682,28.3886783 239.328812,30.8151685 241.099749,33.955902 L241.309458,34.3362184 C243.036719,37.5388289 243.932337,41.2392497 243.996309,45.4374807 L244,45.9241012 C244,50.1606253 243.168355,53.9114809 241.505066,57.176668 L241.309458,57.551265 C239.585256,60.774318 237.276861,63.2831278 234.384272,65.0776942 L234.034358,65.2896138 C231.095538,67.0270409 227.841313,67.9291664 224.271681,67.9959906 L223.841811,68 C218.561756,68 214.583043,66.4260424 211.905672,63.2781271 L211.716644,63.0505992 L211.716644,67.2929427 L198,67.2929427 L198,9 L212.398931,9 L212.398931,28.4047936 C215.177451,25.4718154 218.991745,24.0053262 223.841811,24.0053262 Z M220.500388,56 C222.893503,56 224.871869,55.1733393 226.435486,53.5200179 L226.614062,53.3255814 C228.147879,51.6063123 228.942178,49.2503263 228.996957,46.2576234 L229,45.9224806 C229,42.9324474 228.260481,40.5671175 226.781443,38.8264911 L226.614062,38.6356589 C225.084615,36.946134 223.141645,36.0688806 220.785152,36.0038989 L220.500388,36 C218.110316,36 216.134006,36.8122716 214.571457,38.4368148 L214.385938,38.6356589 C212.852121,40.3300111 212.057822,42.6490666 212.003043,45.5928255 L212,45.9224806 C212,48.9623477 212.739519,51.3654979 214.218557,53.1319313 L214.385938,53.3255814 C215.976563,55.1085271 218.014713,56 220.500388,56 Z M278.716685,25 L293,25 L293,67.2976407 L279.393493,67.2976407 L279.393493,62.7713249 C277.978273,64.3872104 276.296751,65.6344091 274.348927,66.5129208 L273.980589,66.6733212 C272.007216,67.5024955 269.92371,67.9429943 267.730072,67.9948177 L267.289876,68 C262.159614,68 258.041491,66.4668081 254.935508,63.4004242 L254.698582,63.1615245 C251.635803,60.0075553 250.070382,55.3116456 250.00232,49.0737953 L250,48.646098 L250,25 L264.283315,25 L264.283315,46.2268603 C264.283315,49.2829423 264.817671,51.5429958 265.886384,53.0070205 L266.012068,53.1724138 C267.118971,54.5708893 268.710609,55.2980966 270.786983,55.3540356 L271.049055,55.3575318 C273.213842,55.3575318 274.99785,54.602355 276.40108,53.0920015 L276.5745,52.899274 C277.951619,51.3189655 278.66477,48.9283457 278.713952,45.7274147 L278.716685,45.3684211 L278.716685,25 Z M316.953258,68 C313.788181,68 310.66646,67.6463704 307.588095,66.9391111 L306.929109,66.7821429 C303.794734,66.0089002 301.248167,65.00998 299.289406,63.7853822 L299,63.6 L303.263957,53.3857143 C304.986096,54.5101587 307.012403,55.4178624 309.342879,56.1088254 L309.846922,56.2535714 C312.208257,56.9102041 314.548359,57.2619716 316.867226,57.3088739 L317.401973,57.3142857 C319.586358,57.3142857 321.17165,57.0886081 322.157849,56.637253 L322.301285,56.5678571 C323.216677,56.0995098 323.701297,55.4339636 323.755143,54.5712185 L323.760192,54.4071429 C323.760192,53.5114286 323.231234,52.8639018 322.173318,52.4645625 L322.001883,52.4035714 C321.834499,52.347449 321.653117,52.2915938 321.457737,52.2360058 L321.048313,52.1251863 C320.976965,52.1067757 320.904062,52.0883949 320.829603,52.0700437 L320.364187,51.9602932 L320.364187,51.9602932 L319.861442,51.8512553 L319.861442,51.8512553 L319.32137,51.74293 C319.228247,51.7249352 319.133569,51.7069701 319.037336,51.6890347 L318.441271,51.5817784 L318.441271,51.5817784 L317.807879,51.4752349 L317.807879,51.4752349 L317.137158,51.369404 L317.137158,51.369404 L316.429109,51.2642857 C313.378453,50.869888 310.758339,50.3594909 308.568769,49.7330944 L308.163269,49.6142857 C306.007987,48.967381 304.13391,47.8004643 302.54104,46.1135357 L302.291871,45.8428571 C300.705094,44.075 299.88337,41.6252551 299.826699,38.4936224 L299.823551,38.1428571 C299.823551,35.5325397 300.533241,33.1988364 301.95262,31.1417473 L302.141781,30.875 C303.62337,28.8419643 305.757511,27.2178365 308.544204,26.0026166 L308.911387,25.8464286 C311.755321,24.6667659 315.137057,24.0523582 319.056596,24.0032056 L319.570891,24 C322.286749,24 324.981403,24.2677937 327.654853,24.8033812 L328.322773,24.9428571 C331.045041,25.5344538 333.347557,26.3580491 335.230322,27.4136431 L335.578422,27.6142857 L331.315242,37.75 C327.852728,35.7295918 324.112057,34.683309 320.093228,34.6111516 L319.645547,34.6071429 C317.513905,34.6071429 315.922217,34.8553304 314.870483,35.3517054 L314.708906,35.4321429 C313.723249,35.9497899 313.201431,36.6182361 313.143451,37.4374815 L313.138016,37.5928571 C313.138016,38.5383333 313.65551,39.2119851 314.690499,39.6138125 L314.858219,39.675 L315.019307,39.7286526 L315.019307,39.7286526 L315.369296,39.8364448 C315.49214,39.8724838 315.621165,39.908631 315.75637,39.9448864 L316.180527,40.0539773 C316.25431,40.0722132 316.329638,40.0904762 316.406512,40.1087662 L316.886295,40.2188312 L316.886295,40.2188312 L317.403162,40.3295455 L317.403162,40.3295455 L317.957113,40.4409091 L317.957113,40.4409091 L318.548147,40.5529221 L318.548147,40.5529221 L319.176266,40.6655844 L319.176266,40.6655844 L320.187976,40.8357955 L320.187976,40.8357955 L320.543754,40.8928571 C323.699015,41.3875661 326.342816,41.9523589 328.475158,42.5872354 L328.846144,42.7 C330.925221,43.3451128 332.746749,44.4956074 334.310729,46.151484 L334.569008,46.4321429 C336.131789,48.1747449 336.941086,50.5870581 336.996899,53.6690825 L337,54.0142857 C337,56.5695652 336.292754,58.8732379 334.878261,60.9253038 L334.680992,61.2035714 C333.199404,63.2366071 331.042408,64.8487083 328.210005,66.0398748 L327.836731,66.1928571 C324.819376,67.397619 321.191552,68 316.953258,68 Z M369.306229,23.9299191 C374.192047,23.9299191 378.147718,25.4120629 381.173241,28.3763505 L381.416515,28.6199461 C384.402725,31.6755697 385.929764,36.249167 385.997632,42.3407378 L386,42.7681941 L386,67 L371.840471,67 L371.840471,45.1913747 C371.840471,39.5050482 369.703873,36.6136958 365.430677,36.5173173 L365.207744,36.5148248 C362.867072,36.5148248 360.974094,37.2857037 359.52881,38.8274614 L359.357525,39.0161725 C357.944527,40.6241817 357.212796,43.0074812 357.162332,46.1660707 L357.159529,46.5202156 L357.159529,67 L343,67 L343,9 L357.159529,9 L357.159529,28.541779 C358.603489,27.125 360.287595,26.0288283 362.211847,25.253264 L362.599899,25.1024259 C364.686072,24.3207547 366.921515,23.9299191 369.306229,23.9299191 Z M84,0 C88.5230848,0 92.8661765,0.769733067 96.9054458,2.18536966 C102.174,4.02948 106.932,6.981 110.89674,10.75074 L110.888934,10.7509222 C118.350207,17.8536138 123,27.8831573 123,39 C123,57.9194918 109.531443,73.6907241 91.6578228,77.248617 L91.65726,77.298 L91.6373363,77.2508801 C89.1677109,77.7429178 86.6139119,78 84,78 C83.7733462,78 83.5471444,77.9980671 83.3214101,77.9942168 C79.043426,77.9280131 74.9295645,77.1624722 71.0895521,75.8135785 L70.4616473,75.5865325 L69.8540208,75.3558222 L69.1586144,75.0769418 L69.2985268,75.1346021 C68.8793182,74.9638962 68.4637493,74.7861078 68.0519687,74.6013854 L67.3135087,74.259564 C54.3853968,68.1325171 45.3664905,55.1044466 45.0109055,39.9315899 L45.00312,39.43836 L45,39.44148 L45,39 C45,38.7962005 45.0015597,38.5927691 45.0046677,38.3897172 L45.0194269,37.7558032 L45.0410767,37.1919535 L45.0841596,36.4165879 L45.1191925,35.9249001 L45.1370649,35.7064597 C45.1683973,35.3288819 45.2052106,34.9528533 45.2473512,34.5784454 L45.3326483,33.8824889 C45.8778432,29.7094158 47.0818664,25.7456855 48.83526,22.09974 L48.8445954,22.0956889 C55.1406759,9.02110013 68.5155992,0 84,0 Z M84.5,2 C71.0222417,2 59.2300412,9.33791649 52.908082,20.229769 C57.8044454,18.6567064 62.9312712,18.0080472 68.2194791,17.605212 L69.6656669,17.5009328 C69.9073478,17.4843988 70.1493491,17.4682453 70.3916644,17.4524084 L71.9101645,17.3569758 L75.4862271,17.1467718 C76.1293416,17.1088887 76.7742883,17.0701465 77.4209519,17.0294118 L75.1707782,18.2155643 L72.9473966,19.4011837 L72.9473966,19.4011837 L71.4804483,20.1942719 C70.9935416,20.459239 70.5087249,20.7249094 70.0260404,20.9915803 L68.5844258,21.7948918 C61.1695688,25.9639125 54.277112,30.4446924 48.06413,36.3437442 C48.0211506,37.05766 48,37.7763999 48,38.5 C48,51.1835933 54.4989436,62.3744165 64.3425271,68.9181658 C64.1705004,66.7565911 64.0834225,64.57232 64.0834225,62.3643636 C64.0834225,45.6563422 68.9888663,30.0936791 77.4209519,17.0294118 C76.5754011,22.8194439 76.1327166,28.7406417 76.1327166,34.7648984 C76.1327166,48.844038 78.5155349,62.3644053 82.8958174,74.9636906 C83.4283743,74.9883439 83.9628485,75 84.5,75 C86.7516538,75 88.9562627,74.7950191 91.0961795,74.4027605 C90.7482008,73.4890057 90.4184506,72.5177704 90.1011275,71.53827 L89.7259336,70.362052 L89.1806384,68.6241885 L88.8255233,67.5108157 C88.6491846,66.9671071 88.4743958,66.4452276 88.2999037,65.9558075 C99.1523102,69.5737968 109.093583,58.0835187 107.467283,53.4771016 C104.551968,45.2011658 89.6662139,52.3059786 85.5149733,58.5777326 C81.7150695,42.8066096 81.6245027,33.0472513 85.3845882,20.6856578 C86.0044051,20.1343516 87.3945281,19.4768758 89.1185721,18.9115574 L89.6198654,18.7527168 C89.7897406,18.7007201 89.9622677,18.6497306 90.1370695,18.5999196 L90.6679226,18.4541935 C90.9363844,18.3832697 91.2091164,18.315383 91.4848464,18.2511117 L92.0399266,18.1275609 C94.2732206,17.6540107 96.6440993,17.4365164 98.5011658,17.771123 C91.9819144,29.2481283 89.7567807,38.512492 90.212738,47.1397647 C90.540465,46.7719306 91.0347815,46.3584294 91.6606152,45.9292601 L92.0148113,45.6937941 C92.8707188,45.1415894 93.9293332,44.57284 95.1183493,44.0493921 L95.6357006,43.8280111 L96.0237716,43.67011 L96.0237716,43.67011 L96.4192237,43.5161846 L96.4192237,43.5161846 L96.8215611,43.3666594 L96.8215611,43.3666594 L97.2302876,43.2219584 C97.2989136,43.1982672 97.3677851,43.1747947 97.4368918,43.1515497 L97.8542721,43.0148807 L97.8542721,43.0148807 L98.2768015,42.8840967 L98.2768015,42.8840967 L98.7039841,42.759622 L98.7039841,42.759622 L99.1353239,42.6418807 L99.1353239,42.6418807 L99.5703248,42.5312972 L99.5703248,42.5312972 L100.008491,42.4282957 L100.008491,42.4282957 L100.449326,42.3333004 C100.743996,42.2727333 101.040114,42.2177865 101.33702,42.1690257 L101.782887,42.1005947 C106.840861,41.379228 112.030836,42.5273611 114.103647,48.3241604 C115.329556,51.7604766 115.409282,56.0309145 113.765446,60.2860479 C118.308134,54.2012127 121,46.6575769 121,38.5 C121,27.2131856 115.847238,17.102067 107.768607,10.4001563 C98.2404133,11.09213 88.8672252,13.5277987 80.0492784,16.2166511 L78.2932109,16.7573557 C78.0018064,16.8478885 77.7110484,16.9385923 77.4209519,17.0294118 L77.9606157,16.5119834 L79.0577365,15.4717569 C83.6774464,11.1265097 88.893054,6.67701578 94.3757724,3.35631388 C91.2339079,2.47321845 87.9212603,2 84.5,2 Z" id="Shape"></path>
            <g id="A" transform="translate(0.000000, 26.000000)">
                <path d="M10.2676056,15.6214286 L13.4239437,6.75 L13.5760563,6.75 L16.7323944,15.6214286 L10.2676056,15.6214286 Z M0,27 L6.08450704,27 L8.36619718,20.8285714 L18.6338028,20.8285714 L20.915493,27 L27,27 L16.7323944,0 L10.2676056,0 L0,27 Z" id="Shape"></path>
            </g>
            <g id="PROJECT" transform="translate(404.000000, 26.000000)">
                <path d="M0,27 L5.50458716,27 L5.50458716,18.4571429 L10.8256881,18.4571429 C16.293578,18.4571429 20,14.78 20,9.72857143 C20,4.67714286 16.293578,1 10.8256881,1 L0,1 L0,27 Z M5.50458716,13.2571429 L5.50458716,6.2 L10.6422018,6.2 C12.8440367,6.2 14.3119266,7.64857143 14.3119266,9.72857143 C14.3119266,11.8085714 12.8440367,13.2571429 10.6422018,13.2571429 L5.50458716,13.2571429 Z" id="Shape"></path>
                <path d="M25,27 L30.4310345,27 L30.4310345,18.4571429 L35.5,18.4571429 L40.0258621,27 L46,27 L40.75,17.3428571 C41.5827586,16.9714286 42.3068966,16.4514286 42.9224138,15.7828571 C44.0448276,14.6314286 45.0948276,12.7 45.0948276,9.72857143 C45.0948276,4.52857143 41.6551724,1 36.2241379,1 L25,1 L25,27 Z M30.4310345,13.2571429 L30.4310345,6.2 L36.0431034,6.2 C38.0706897,6.2 39.4827586,7.64857143 39.4827586,9.72857143 C39.4827586,11.8085714 38.0706897,13.2571429 36.0431034,13.2571429 L30.4310345,13.2571429 Z" id="Shape"></path>
                <path d="M55.7105263,13.5 C55.7105263,8.87671233 59.3947368,5.17808219 64,5.17808219 C68.6052632,5.17808219 72.2894737,8.87671233 72.2894737,13.5 C72.2894737,18.1232877 68.6052632,21.8219178 64,21.8219178 C59.3947368,21.8219178 55.7105263,18.1232877 55.7105263,13.5 Z M50,13.5 C50,20.8972603 56.0421053,27 64,27 C71.9578947,27 78,20.8972603 78,13.5 C78,6.10273973 71.9578947,0 64,0 C56.0421053,0 50,6.10273973 50,13.5 Z" id="Shape"></path>
                <path d="M79,23.7272727 C79.4911111,24.3454545 80.0955556,24.8909091 80.8133333,25.3636364 C82.06,26.2 83.9866667,27 86.7444444,27 C92.2222222,27 96,23.3272727 96,17.9090909 L96,1 L90.3333333,1 L90.3333333,17.9090909 C90.3333333,20.4909091 88.8222222,21.9090909 86.5555556,21.9090909 C85.3844444,21.9090909 84.44,21.4727273 83.7977778,21 C83.3822222,20.7454545 83.0422222,20.4181818 82.7777778,20.0909091 L79,23.7272727 Z" id="Path"></path>
                <polygon id="Path" points="102 27 122 27 122 21.8 107.660377 21.8 107.660377 16.2285714 118.603774 16.2285714 118.603774 11.2142857 107.660377 11.2142857 107.660377 6.2 121.622642 6.2 121.622642 1 102 1"></polygon>
                <path d="M146.323529,18.1232877 C145.808824,18.8260274 145.183824,19.4178082 144.448529,19.9726027 C143.161765,20.8972603 141.360294,21.8219178 138.970588,21.8219178 C134.375,21.8219178 130.698529,18.1232877 130.698529,13.5 C130.698529,8.87671233 134.375,5.17808219 138.970588,5.17808219 C141.286765,5.17808219 143.051471,6.10273973 144.264706,7.02739726 C144.963235,7.58219178 145.588235,8.1739726 146.139706,8.87671233 L149.816176,5.17808219 C149.044118,4.21643836 148.161765,3.36575342 147.095588,2.5890411 C145.294118,1.29452055 142.536765,0 138.970588,0 C131.029412,0 125,6.10273973 125,13.5 C125,20.8972603 131.029412,27 138.970588,27 C142.647059,27 145.367647,25.7054795 147.242647,24.4109589 C148.308824,23.6342466 149.227941,22.7835616 150,21.8219178 L146.323529,18.1232877 Z" id="Path"></path>
                <polygon id="Path" points="159.272727 27 164.727273 27 164.727273 6.2 172 6.2 172 1 152 1 152 6.2 159.272727 6.2"></polygon>
            </g>
        </g>
    </g>
</svg>