<svg viewBox="0 0 474 547" xmlns="http://www.w3.org/2000/svg">
    <g id="Page-1" stroke="none" stroke-width="1" fill="none" fill-rule="evenodd">
        <g id="Group" transform="translate(0.128010, 0.000000)" fill-rule="nonzero">
            <path d="M447.87199,209.91 C403.846698,210.015307 360.901073,196.28544 325.10199,170.66 L325.10199,349.38 C325.077101,417.162851 282.993522,477.814896 219.507825,501.565301 C156.022128,525.315706 84.462865,507.178175 39.9546384,456.055447 C-4.55358819,404.93272 -12.6664651,331.557796 19.5981835,271.946489 C51.8628322,212.335182 117.73118,179.002632 184.87199,188.31 L184.87199,278.2 C154.095769,268.519426 120.583615,279.71419 101.804844,305.948653 C83.0260723,332.183116 83.2341789,367.515027 102.320681,393.526461 C121.407184,419.537896 155.048883,430.337121 185.708935,420.294684 C216.368987,410.252247 237.102719,381.642816 237.10199,349.38 L237.10199,0 L325.10199,0 C325.040865,7.43140026 325.663488,14.8526687 326.96199,22.17 L326.96199,22.17 C333.142117,55.1831654 352.639801,84.1964147 380.87199,102.39 C400.745885,115.530921 424.046469,122.535007 447.87199,122.53 L447.87199,209.91 Z" id="Path" fill="#28FFFF"></path>
            <path d="M473.87199,244.91 C429.846698,245.015307 386.901073,231.28544 351.10199,205.66 L351.10199,384.38 C351.077101,452.162851 308.993522,512.814896 245.507825,536.565301 C182.022128,560.315706 110.462865,542.178175 65.9546384,491.055447 C21.4464118,439.93272 13.3335349,366.557796 45.5981835,306.946489 C77.8628322,247.335182 143.73118,214.002632 210.87199,223.31 L210.87199,313.2 C180.095769,303.519426 146.583615,314.71419 127.804844,340.948653 C109.026072,367.183116 109.234179,402.515027 128.320681,428.526461 C147.407184,454.537896 181.048883,465.337121 211.708935,455.294684 C242.368987,445.252247 263.102719,416.642816 263.10199,384.38 L263.10199,35 L351.10199,35 C351.040865,42.4314003 351.663488,49.8526687 352.96199,57.17 L352.96199,57.17 C359.142117,90.1831654 378.639801,119.196415 406.87199,137.39 C426.745885,150.530921 450.046469,157.535007 473.87199,157.53 L473.87199,244.91 Z" id="Path" fill="#FE2D52"></path>
            <path d="M458.87199,233.91 C414.846698,234.015307 371.901073,220.28544 336.10199,194.66 L336.10199,373.38 C336.077101,441.162851 293.993522,501.814896 230.507825,525.565301 C167.022128,549.315706 95.462865,531.178175 50.9546384,480.055447 C6.44641181,428.93272 -1.66646512,355.557796 30.5981835,295.946489 C62.8628322,236.335182 128.73118,203.002632 195.87199,212.31 L195.87199,302.2 C165.095769,292.519426 131.583615,303.71419 112.804844,329.948653 C94.0260723,356.183116 94.2341789,391.515027 113.320681,417.526461 C132.407184,443.537896 166.048883,454.337121 196.708935,444.294684 C227.368987,434.252247 248.102719,405.642816 248.10199,373.38 L248.10199,24 L336.10199,24 C336.040865,31.4314003 336.663488,38.8526687 337.96199,46.17 L337.96199,46.17 C344.142117,79.1831654 363.639801,108.196415 391.87199,126.39 C411.745885,139.530921 435.046469,146.535007 458.87199,146.53 L458.87199,233.91 Z" id="Path" fill="#FFFFFF"></path>
        </g>
    </g>
</svg>