<svg viewBox="0 0 100 43" version="1.1" xmlns="http://www.w3.org/2000/svg">
    <g id="Page-1" stroke="none" stroke-width="1" fill="none" fill-rule="evenodd">
        <g id="w3c-rss" fill-rule="nonzero">
            <path d="M100,1 L100,41.17119 C100,41.7234747 99.5522847,42.17119 99,42.17119 L1,42.17119 C0.44771525,42.17119 3.99185455e-15,41.7234747 0,41.17119 L0,1 C-6.76353751e-17,0.44771525 0.44771525,1.01453063e-16 1,0 L99,0 C99.5522847,7.52494067e-15 100,0.44771525 100,1 Z" id="Path" fill="#1C1917"></path>
            <g id="Group-7" transform="translate(2.296451, 2.505219)">
                <polygon id="Path" fill="#FBBF24" points="95.4070981 0 95.4070981 37.1607516 47.8079332 37.1607516 47.8079332 0"></polygon>
                <polygon id="Path" fill="#FFFFFF" points="47.8079332 0 47.8079332 37.1607516 0 37.1607516 0 0"></polygon>
                <g id="Group-4" transform="translate(11.064718, 5.845511)">
                    <path d="M3.6683567,0 C1.64502871,0 0,1.64502871 0,3.6683567 L0,22.0101401 C0,24.0334681 1.64502871,25.6784969 3.6683567,25.6784969 L22.0101401,25.6784969 C24.0334681,25.6784969 25.6784969,24.0334681 25.6784969,22.0101401 L25.6784969,3.6683567 C25.6784969,1.64502871 24.0334681,0 22.0101401,0 L3.6683567,0 Z" id="Path" fill="#F97316"></path>
                    <g id="Group-3" transform="translate(5.219207, 4.801670)" fill="#FFFFFF">
                        <path d="M0,1.36313398 C0,0.607730566 0.607730566,0 1.36313398,0 C9.14435712,0 15.4488518,6.30449466 15.4488518,14.0857178 C15.4488518,14.8411212 14.8411212,15.4488518 14.0857178,15.4488518 C13.3303144,15.4488518 12.7225838,14.8411212 12.7225838,14.0857178 C12.7225838,7.80962175 7.63923002,2.72626795 1.36313398,2.72626795 C0.607730566,2.72626795 0,2.11853739 0,1.36313398 Z" id="Path"></path>
                        <path d="M0,6.8156699 C0,6.06026649 0.607730566,5.45253593 1.36313398,5.45253593 C6.12842319,5.45253593 9.99631585,9.32042858 9.99631585,14.0857178 C9.99631585,14.8411212 9.38858528,15.4488518 8.63318188,15.4488518 C7.87777846,15.4488518 7.27004789,14.8411212 7.27004789,14.0857178 C7.27004789,10.8255557 4.62329608,8.17880388 1.36313398,8.17880388 C0.607730566,8.17880388 0,7.57107332 0,6.8156699 Z" id="Path"></path>
                        <path d="M0,13.6313398 C0,12.6275557 0.813727829,11.8138278 1.81751197,11.8138278 C2.82129612,11.8138278 3.63502395,12.6275557 3.63502395,13.6313398 C3.63502395,14.6351239 2.82129612,15.4488518 1.81751197,15.4488518 C0.813727829,15.4488518 0,14.6351239 0,13.6313398 Z" id="Path"></path>
                    </g>
                </g>
                <path d="M63.6094779,35.2818372 C63.0814092,34.1229303 62.7587006,33.3967797 62.6413522,33.1033856 L61.2991781,30.0007426 C60.888458,29.0472117 60.5364123,28.2697173 60.2430409,27.6682593 L59.4289353,26.0179171 C57.8593983,22.9079392 56.0038242,20.7148181 53.8622129,19.4385536 C56.3705384,17.3261158 58.6074954,16.2698969 60.5730837,16.2698969 C61.8785864,16.2698969 62.9053864,16.7723344 63.6534835,17.7772093 C64.4015806,18.7820843 65.0396635,20.524112 65.5677319,23.0032925 C69.3815601,15.7711269 72.3519455,10.7760917 74.4788883,8.01818676 C76.3858023,5.53900628 78.0176808,3.8959991 79.3745236,3.08916522 C80.7313662,2.28233134 82.5319332,1.87891441 84.7762244,1.87891441 C86.1844073,1.87891441 87.7099384,2.15030399 89.3528184,2.69308313 C85.5243215,5.20160303 81.3474461,9.32379069 76.8221923,15.0596461 C72.2969384,20.7955015 67.8927002,27.5362319 63.6094779,35.2818372 Z" id="Path" fill="#1C1917"></path>
            </g>
        </g>
    </g>
</svg>