<svg viewBox="0 0 100 43" version="1.1" xmlns="http://www.w3.org/2000/svg">
    <g id="Page-1" stroke="none" stroke-width="1" fill="none" fill-rule="evenodd">
        <g id="w3c-html5" fill-rule="nonzero">
            <path d="M100,1 L100,41.17119 C100,41.7234747 99.5522847,42.17119 99,42.17119 L1,42.17119 C0.44771525,42.17119 3.99185455e-15,41.7234747 0,41.17119 L0,1 C-6.76353751e-17,0.44771525 0.44771525,1.01453063e-16 1,0 L99,0 C99.5522847,7.52494067e-15 100,0.44771525 100,1 Z" fill="#1C1917"></path>
            <g id="Group-7" transform="translate(2.296451, 2.505219)">
                <polygon fill="#FBBF24" points="95.4070981 0 95.4070981 37.1607516 47.8079332 37.1607516 47.8079332 0"></polygon>
                <polygon fill="#FFFFFF" points="47.8079332 0 47.8079332 37.1607516 0 37.1607516 0 0"></polygon>
                <path d="M12.9436326,5.63674322 L14.9548756,28.3232367 L23.9795363,31.3152401 L33.0618259,28.3232367 L35.0730689,5.63674322 L12.9436326,5.63674322 Z M30.7048104,12.9677248 L20.1126479,12.9677248 L20.3489257,15.7992376 L30.4685326,15.7992376 L29.6847816,24.3052397 L24.042928,25.8528278 L24.042928,25.8700232 L23.9795363,25.8700232 L18.2915797,24.3052397 L17.9458072,19.9605297 L20.6946982,19.9605297 L20.8963987,22.1443484 L23.9795363,22.9754603 L27.0741998,22.1443484 L27.4199722,18.5791642 L17.8017354,18.5791642 L17.0640875,10.2336527 L30.9583768,10.2336527 L30.7048104,12.9677248 L30.7048104,12.9677248 Z" id="html5" fill="#F97316"></path>
                <path d="M63.6094779,35.2818372 C63.0814092,34.1229303 62.7587006,33.3967797 62.6413522,33.1033856 L61.2991781,30.0007426 C60.888458,29.0472117 60.5364123,28.2697173 60.2430409,27.6682593 L59.4289353,26.0179171 C57.8593983,22.9079392 56.0038242,20.7148181 53.8622129,19.4385536 C56.3705384,17.3261158 58.6074954,16.2698969 60.5730837,16.2698969 C61.8785864,16.2698969 62.9053864,16.7723344 63.6534835,17.7772093 C64.4015806,18.7820843 65.0396635,20.524112 65.5677319,23.0032925 C69.3815601,15.7711269 72.3519455,10.7760917 74.4788883,8.01818676 C76.3858023,5.53900628 78.0176808,3.8959991 79.3745236,3.08916522 C80.7313662,2.28233134 82.5319332,1.87891441 84.7762244,1.87891441 C86.1844073,1.87891441 87.7099384,2.15030399 89.3528184,2.69308313 C85.5243215,5.20160303 81.3474461,9.32379069 76.8221923,15.0596461 C72.2969384,20.7955015 67.8927002,27.5362319 63.6094779,35.2818372 Z" fill="#1C1917"></path>
            </g>
        </g>
    </g>
</svg>