<svg viewBox="0 0 100 43" version="1.1" xmlns="http://www.w3.org/2000/svg">
    <g id="Page-1" stroke="none" stroke-width="1" fill="none" fill-rule="evenodd">
        <g id="w3c-css3" fill-rule="nonzero">
            <path d="M100,1 L100,41.17119 C100,41.7234747 99.5522847,42.17119 99,42.17119 L1,42.17119 C0.44771525,42.17119 3.99185455e-15,41.7234747 0,41.17119 L0,1 C-6.76353751e-17,0.44771525 0.44771525,1.01453063e-16 1,0 L99,0 C99.5522847,7.52494067e-15 100,0.44771525 100,1 Z" fill="#1C1917"></path>
            <g id="Group-7" transform="translate(2.296451, 2.505219)">
                <polygon fill="#FBBF24" points="95.4070981 0 95.4070981 37.1607516 47.8079332 37.1607516 47.8079332 0"></polygon>
                <polygon fill="#FFFFFF" points="47.8079332 0 47.8079332 37.1607516 0 37.1607516 0 0"></polygon>
                <path d="M12.9436326,5.63674322 L14.9359016,28.3232367 L23.9039666,31.3152401 L32.8720315,28.3232367 L34.8643006,5.63674322 L12.9436326,5.63674322 Z M30.8169689,10.2221891 L30.5429605,12.9333339 L23.9610518,15.759115 L23.9439261,15.7648468 L30.3089119,15.7648468 L29.578223,24.1676764 L23.9724687,25.812705 L18.3324635,24.1390173 L17.967119,19.9032117 L20.7585791,19.9032117 L20.9412514,22.0984939 L23.9439261,22.8608242 L27.0664797,21.9781259 L27.2776944,18.4473326 L17.7844468,18.4186736 L17.7844468,18.4129418 L17.7730297,18.4186736 L17.5675235,15.7648468 L23.9667601,13.0880928 L24.3378132,12.9333339 L17.3220577,12.9333339 L16.9909643,10.2221891 L30.8169689,10.2221891 Z" id="css3" fill="#3B82F6"></path>
                <path d="M63.6094779,35.2818372 C63.0814092,34.1229303 62.7587006,33.3967797 62.6413522,33.1033856 L61.2991781,30.0007426 C60.888458,29.0472117 60.5364123,28.2697173 60.2430409,27.6682593 L59.4289353,26.0179171 C57.8593983,22.9079392 56.0038242,20.7148181 53.8622129,19.4385536 C56.3705384,17.3261158 58.6074954,16.2698969 60.5730837,16.2698969 C61.8785864,16.2698969 62.9053864,16.7723344 63.6534835,17.7772093 C64.4015806,18.7820843 65.0396635,20.524112 65.5677319,23.0032925 C69.3815601,15.7711269 72.3519455,10.7760917 74.4788883,8.01818676 C76.3858023,5.53900628 78.0176808,3.8959991 79.3745236,3.08916522 C80.7313662,2.28233134 82.5319332,1.87891441 84.7762244,1.87891441 C86.1844073,1.87891441 87.7099384,2.15030399 89.3528184,2.69308313 C85.5243215,5.20160303 81.3474461,9.32379069 76.8221923,15.0596461 C72.2969384,20.7955015 67.8927002,27.5362319 63.6094779,35.2818372 Z" fill="#1C1917"></path>
            </g>
        </g>
    </g>
</svg>