<?xml version="1.0" encoding="UTF-8"?>
<svg width="600px" height="598px" viewBox="0 0 600 598" version="1.1" xmlns="http://www.w3.org/2000/svg" xmlns:xlink="http://www.w3.org/1999/xlink">
    <title>Group</title>
    <g id="Page-1" stroke="none" stroke-width="1" fill="none" fill-rule="evenodd">
        <g id="Group">
            <rect id="Rectangle" fill="#252728" x="0" y="0" width="600" height="597.709177"></rect>
            <path d="M176,386 L426,386 C484.542183,386 532,433.457817 532,492 L532,590 C532,594.418278 528.418278,598 524,598 L78,598 C73.581722,598 70,594.418278 70,590 L70,492 C70,434.043238 116.513406,386.950265 174.247096,386.014201 L176,386 Z M301,338 C373.901587,338 433,279.125445 433,206.5 C433,133.874555 373.901587,75 301,75 C228.098413,75 169,133.874555 169,206.5 C169,279.125445 228.098413,338 301,338 Z" id="Shape" fill="#B8BEC1"></path>
        </g>
    </g>
</svg>