<svg width="100%" height="100%" viewBox="0 0 100 100" version="1.1" xmlns="http://www.w3.org/2000/svg">
    <g id="Page-1" stroke="none" stroke-width="1" fill="none" fill-rule="evenodd">
        <g id="avatar" fill-rule="nonzero">
            <rect id="Rectangle" fill="#60A5FA" x="0" y="0" width="100" height="99.6181962"></rect>
            <path d="M29.3333333,64.3333333 L71,64.3333333 C80.7570305,64.3333333 88.6666667,72.2429695 88.6666667,82 L88.6666667,98.3333333 C88.6666667,99.069713 88.069713,99.6666667 87.3333333,99.6666667 L13,99.6666667 C12.2636203,99.6666667 11.6666667,99.069713 11.6666667,98.3333333 L11.6666667,82 C11.6666667,72.3405397 19.418901,64.4917108 29.0411827,64.3357002 L29.3333333,64.3333333 Z M50.1666667,56.3333333 C62.3169312,56.3333333 72.1666667,46.5209075 72.1666667,34.4166667 C72.1666667,22.3124258 62.3169312,12.5 50.1666667,12.5 C38.0164022,12.5 28.1666667,22.3124258 28.1666667,34.4166667 C28.1666667,46.5209075 38.0164022,56.3333333 50.1666667,56.3333333 Z" id="Shape" fill="#BFDBFE"></path>
        </g>
    </g>
</svg>