<svg width="189px" height="75px" viewBox="0 0 189 75" version="1.1" xmlns="http://www.w3.org/2000/svg">
    <g id="Page-1" stroke="none" stroke-width="1" fill="none" fill-rule="evenodd">
        <g id="Group" fill-rule="nonzero">
            <polygon id="Path" fill="#003399" points="189 0 189 75 0 75 0 0"></polygon>
            <path d="M67.3558476,31.8481319 L67.3582413,31.9802149 C67.3582413,32.9268324 67.1459638,33.7448976 66.721409,34.4344106 L66.644284,34.5547549 C66.1947553,35.2291442 65.5426642,35.7492249 64.6880106,36.1149971 L64.5350866,36.1779433 C63.6563657,36.5258041 62.5983088,36.7093972 61.3609161,36.7287228 L61.140691,36.730428 C59.9394256,36.730428 58.9001878,36.5524238 58.0229776,36.1964154 L57.8698577,36.1317425 C57.014679,35.7558552 56.3703112,35.2916374 55.9367543,34.7390892 L55.8579328,34.6344513 C55.452318,34.073304 55.2368351,33.5100136 55.2114841,32.9445801 L55.208949,32.8314648 C55.208949,32.463043 55.3269267,32.1437197 55.562882,31.8734951 L55.6243287,31.8069619 C55.879947,31.5449203 56.1981809,31.4038211 56.5790304,31.383664 L56.6755473,31.3811444 C57.016606,31.3811444 57.2849755,31.4594345 57.4806558,31.6160146 L57.5322209,31.6606593 C57.7091558,31.8262978 57.8792655,32.0514586 58.0425501,32.3361417 L58.1034619,32.445688 C58.4408125,33.0470136 58.8397994,33.5068092 59.3004224,33.8250749 L59.4078141,33.8960084 C59.8843012,34.196525 60.5236926,34.3556221 61.3259884,34.3732995 L61.4783279,34.3749568 C62.1405985,34.3749568 62.6916338,34.2339839 63.1314338,33.952038 L63.2239741,33.8894633 C63.6500106,33.5857892 63.8763424,33.2412834 63.9029697,32.8559458 L63.9056324,32.7783339 C63.9056324,32.1733464 63.6939487,31.7235092 63.2705811,31.4288223 L63.1980598,31.3811444 C62.7511718,31.1039396 62.0305781,30.8385985 61.0362786,30.5851211 L60.8680277,30.5429847 C59.7241844,30.2518234 58.7800456,29.9471267 58.0356115,29.6288945 L57.8893873,29.5650676 C57.174537,29.2462136 56.5934962,28.8327814 56.1462649,28.324771 L56.0524778,28.214464 C55.6207645,27.6883183 55.3922104,27.0483776 55.3668155,26.2946419 L55.3644347,26.1519829 C55.3644347,25.4700397 55.5508257,24.8231758 55.9236076,24.211391 L56.0006492,24.0895018 C56.3996069,23.4800135 56.9768834,22.9864801 57.7324786,22.6089018 L57.8762424,22.5394647 C58.6541275,22.1761391 59.583273,21.9837903 60.663679,21.9624182 L60.8680277,21.9604145 C61.7089692,21.9604145 62.4716461,22.0423711 63.1560586,22.2062841 L63.3407762,22.2530197 C64.0111883,22.4320692 64.5796672,22.6669786 65.046213,22.9577478 L65.1709255,23.0384334 C65.615463,23.3366386 65.9634699,23.6643292 66.2149462,24.0215052 L66.2874931,24.1295425 C66.5213685,24.4954058 66.648051,24.8538284 66.6675406,25.2048102 L66.6701983,25.300348 C66.6701983,25.6851178 66.554034,26.0056986 66.3217055,26.2620903 L66.2612033,26.3248509 C66.0082484,26.5720069 65.6563086,26.7044119 65.205384,26.7220659 L65.0995673,26.7241029 C64.7692939,26.7241029 64.4836129,26.6360711 64.2425243,26.4600074 L64.1715355,26.4045473 C63.939593,26.2111106 63.677129,25.929642 63.3841436,25.5601416 L63.2953323,25.4466506 C63.0569709,25.1311161 62.7809228,24.8717579 62.467188,24.6685757 L62.3477709,24.5950156 C62.0104202,24.3974339 61.5610234,24.2915865 60.9995804,24.2774735 L60.8680277,24.2758451 C60.2735372,24.2758451 59.7722026,24.3962396 59.3640239,24.6370285 L59.2714825,24.6947324 C58.8740832,24.9567776 58.6629648,25.2791681 58.6381274,25.6619039 L58.6356436,25.7392557 C58.6356436,26.0934252 58.7699262,26.3883934 59.0384915,26.6241603 L59.1028519,26.6775171 C59.3860084,26.8991876 59.75866,27.0860697 60.2208069,27.2381633 L60.3621358,27.2827477 L60.5838719,27.3485924 L61.0910408,27.4915753 L61.5271519,27.6086944 L62.182946,27.7780289 L62.5426913,27.8683429 C63.5683461,28.125151 64.4187508,28.428242 65.0939054,28.7776159 L65.235899,28.8531902 C65.8860178,29.209176 66.3892407,29.6250836 66.7455675,30.1009132 L66.8196749,30.2037938 C67.1308466,30.6535843 67.3071772,31.1583196 67.3486668,31.7179996 L67.3558476,31.8481319 Z M73.6276201,23.9963302 L73.6276201,24.4352379 C74.2522388,23.6452522 74.8996338,23.0520936 75.569805,22.6557623 L75.7041429,22.5791204 C76.3775857,22.2090326 77.1346513,22.0124235 77.9753397,21.9892931 L78.1445924,21.98698 C79.1776057,21.98698 80.1328668,22.2457941 81.0103757,22.7634223 L81.1559073,22.8520901 C82.0274284,23.3997494 82.7250675,24.1876253 83.2488246,25.2157177 L83.3300781,25.3800444 C83.8370371,26.4360629 84.102587,27.677164 84.1267279,29.1033476 L84.1285385,29.3186633 C84.1285385,30.3566231 83.9960909,31.3161274 83.7311957,32.197176 L83.6677149,32.3991022 C83.3809803,33.2725371 82.994352,34.0146133 82.50783,34.625331 L82.4020463,34.7541884 C81.9038089,35.3433587 81.3216988,35.8061591 80.655716,36.1425895 L80.5005388,36.217984 C79.82142,36.5352113 79.0957773,36.7051544 78.3236106,36.7278135 L78.1445924,36.730428 C77.1916184,36.730428 76.3824748,36.5456958 75.7171618,36.1762315 L75.5941011,36.1047921 C74.9519276,35.715747 74.3381082,35.1566625 73.7526429,34.4275385 L73.6276201,34.2686949 L73.6276201,39.7242404 C73.6276201,41.2820465 73.0880752,42.0799472 72.0089855,42.1179425 L71.9270422,42.1193673 C71.2958485,42.1193673 70.8665634,41.9342697 70.6391868,41.5640746 L70.6031603,41.5006615 C70.4003528,41.1139704 70.2926114,40.5615834 70.2799359,39.8435008 L70.2786684,39.6976749 L70.2786684,24.0228956 C70.2786684,23.3741593 70.4079537,22.8795008 70.6665244,22.5389203 L70.7199623,22.4728585 C70.9945452,22.1540045 71.363351,21.983949 71.8263796,21.9626921 L71.9270422,21.9604145 C72.3955858,21.9604145 72.782993,22.1130141 73.089264,22.4182132 L73.1536516,22.4859487 C73.4696306,22.8365615 73.6276201,23.340022 73.6276201,23.9963302 Z M80.5698772,29.4757221 L80.571897,29.2790076 C80.571897,28.3847311 80.4474661,27.608286 80.1986044,26.9496724 L80.1433724,26.8103444 C79.8769685,26.1688034 79.5143789,25.6663348 79.0556034,25.3029387 L78.9558221,25.2271967 C78.4833059,24.883668 77.9636781,24.7004527 77.396939,24.6775508 L77.2747738,24.675097 C76.3377805,24.675097 75.5417461,25.0375281 74.8866706,25.7623902 L74.8020254,25.8589928 C74.1563429,26.6192718 73.8215445,27.7250231 73.7976304,29.1762467 L73.7962507,29.3452288 C73.7962507,30.7356954 74.1042481,31.8288165 74.7202429,32.624592 L74.7956407,32.7186578 C75.4341398,33.4878264 76.2196916,33.8884351 77.1522958,33.9204837 L77.2747738,33.9225739 C77.8211378,33.9225739 78.330261,33.7715275 78.8021434,33.4694347 L78.9103783,33.3970397 C79.3789219,33.0700406 79.7606583,32.590442 80.0555876,31.9582438 L80.1174581,31.8204371 C80.4002201,31.1661994 80.5510264,30.3846278 80.5698772,29.4757221 Z M96.0188546,34.831773 L95.9274246,34.6810372 C95.1318256,35.3154916 94.3605142,35.8025513 93.6134902,36.1422163 L93.4415312,36.217984 C92.694432,36.5368381 91.8625976,36.7068936 90.9460282,36.7281505 L90.7483235,36.730428 C89.8964853,36.730428 89.1415836,36.5685673 88.4836184,36.2448458 L88.3533179,36.1779433 C87.7113781,35.8344147 87.2068466,35.3768556 86.8397234,34.805266 L86.7631574,34.6810372 C86.4158976,34.0933971 86.2306924,33.4592505 86.2075418,32.7785974 L86.2050613,32.6320313 C86.2050613,31.6857703 86.483715,30.8723264 87.0410225,30.1916997 L87.1267085,30.0906018 C87.7104183,29.4249252 88.5011144,28.9672664 89.4987968,28.7176254 L90.0600974,28.5902175 L91.207265,28.3468932 L91.5525113,28.274525 L92.1811205,28.1397727 L92.7618446,28.0107954 L93.1223911,27.928019 L93.6233067,27.8086669 C94.1002798,27.6922023 94.6076739,27.5570409 95.1454892,27.4031826 L95.6934449,27.243092 C95.6526462,26.3353677 95.4816238,25.6566253 95.1803776,25.2068649 L95.1289642,25.1340251 C94.8095946,24.7045501 94.1625473,24.4808652 93.1878223,24.4629704 L93.058826,24.4618033 C92.2116594,24.4618033 91.5619964,24.5758257 91.1098369,24.8038705 L91.0273715,24.8479651 C90.6078895,25.0853662 90.2437694,25.4324463 89.9350115,25.8892055 L89.8589753,26.0056803 L89.6757125,26.2932958 L89.4669294,26.6114311 L89.3370174,26.8010187 L89.2299702,26.9485943 L89.1713079,27.0236381 C89.0466904,27.1759358 88.7896253,27.2575238 88.4001127,27.2684023 L88.307874,27.2696575 C87.9429458,27.2696575 87.6235667,27.1596632 87.3497367,26.9396746 L87.2761851,26.8769506 C87.0069555,26.6340847 86.8627254,26.3280338 86.8434947,25.9587979 L86.8412758,25.872468 C86.8412758,25.2735419 87.0352588,24.6904071 87.4232249,24.1230636 L87.5034045,24.0098054 C87.9200639,23.4398956 88.5568174,22.9651122 89.4136649,22.5854552 L89.567158,22.5194443 C90.4523946,22.1495947 91.5435848,21.954937 92.8407284,21.9354712 L93.058826,21.9338491 C94.548715,21.9338491 95.7336975,22.1063369 96.6137736,22.4513127 L96.7318941,22.499424 C97.5808,22.8585191 98.1922711,23.4166654 98.5663075,24.1738628 L98.6206322,24.2889353 C98.9700494,25.0643389 99.1534934,26.0798432 99.1709643,27.3354484 L99.1723436,27.5356971 L99.1679098,29.3968838 L99.1524384,31.1541589 L99.1464293,31.6872248 C99.1464293,32.3081356 99.2375798,32.9529105 99.419881,33.6215495 L99.4773059,33.8228571 L99.5130487,33.9438716 L99.578407,34.1712348 L99.6355956,34.3790433 L99.70606,34.6540914 L99.7428241,34.8130137 L99.7714184,34.9523813 C99.7918428,35.0603734 99.8037571,35.1479961 99.8071612,35.2152494 L99.8081824,35.2531572 C99.8081824,35.5992232 99.6608385,35.9165185 99.3661507,36.2050431 L99.2955303,36.271115 C98.9800521,36.5537692 98.6258524,36.7059676 98.2329313,36.7277102 L98.1338944,36.730428 C97.7963112,36.730428 97.4625061,36.5793816 97.132479,36.2772888 L97.056386,36.2048938 C96.7561809,35.9082214 96.4405589,35.4988978 96.1095201,34.9769228 L96.0188546,34.831773 Z M95.6934449,29.9442993 L95.6934449,29.4253102 L95.500462,29.494622 L95.2878924,29.5648611 L95.0557359,29.6360274 L94.8039927,29.7081209 C94.7168139,29.7323066 94.6263705,29.7566469 94.5326627,29.7811417 L94.2417459,29.8550896 L94.0889425,29.8924113 L93.7686456,29.96775 L93.4287618,30.044016 L92.5003291,30.251063 L91.8830058,30.3947475 L91.5629831,30.4732119 L91.3710175,30.5229644 C91.0284982,30.614904 90.6998713,30.785743 90.3851367,31.0354815 L90.2807397,31.1216499 C89.9577835,31.3990601 89.7855401,31.778874 89.7640097,32.2610918 L89.7617029,32.3659916 C89.7617029,32.88166 89.9403917,33.3251397 90.2977694,33.6964305 L90.3716275,33.7697262 C90.7530651,34.1313919 91.2447528,34.3235268 91.8466907,34.3461309 L91.9685483,34.3483913 C92.6193026,34.3483913 93.223425,34.2126156 93.7809155,33.941064 L93.9087394,33.8759881 C94.4621116,33.5820483 94.8778574,33.2089579 95.1559768,32.756717 L95.2134673,32.6585968 C95.5334523,32.1085505 95.6934449,31.2037846 95.6934449,29.9442993 Z M115.472524,32.145155 L115.475057,32.2327793 C115.475057,32.6475813 115.364182,33.0883721 115.142433,33.5551518 L115.079207,33.6830997 C114.835607,34.1581388 114.474029,34.6122918 113.994474,35.0455588 L113.872127,35.1534404 C113.369937,35.586023 112.746526,35.94015 112.001893,36.2158213 L111.827903,36.2780451 C111.064389,36.5416464 110.211496,36.6828614 109.269226,36.70169 L109.050192,36.7038626 C106.923426,36.7038626 105.249837,36.0864597 104.029427,34.8516539 L103.92292,34.7410982 C102.730443,33.4710742 102.116668,31.7811734 102.081596,29.6713958 L102.080001,29.4784411 C102.080001,28.0591718 102.335036,26.7968153 102.845107,25.6913717 L102.92353,25.526732 C103.460321,24.4342578 104.225817,23.578224 105.220019,22.9586304 L105.363604,22.8717255 C106.38193,22.2736594 107.59005,21.9616249 108.987963,21.935622 L109.179764,21.9338491 C110.026586,21.9338491 110.808766,22.050964 111.526303,22.2851939 L111.704341,22.3461913 C112.411336,22.6001773 113.0187,22.9220702 113.526434,23.3118702 L113.651292,23.4107349 C114.13924,23.8093025 114.521679,24.2320256 114.798607,24.6789043 L114.871517,24.8013793 C115.131295,25.2558057 115.271176,25.6819102 115.291159,26.0796928 L115.293657,26.1785484 C115.293657,26.5820538 115.157431,26.928239 114.88498,27.217104 L114.819689,27.2827477 C114.526512,27.5630326 114.175369,27.7131852 113.766261,27.7332056 L113.670822,27.7355156 C113.409537,27.7355156 113.187422,27.674168 113.004478,27.5514729 L112.937711,27.5025865 C112.762395,27.3628291 112.567914,27.1458354 112.354267,26.8516056 L112.282342,26.7506684 C111.880358,26.1245557 111.46175,25.643846 111.026519,25.3085392 L110.925786,25.2337418 C110.485518,24.9191999 109.934125,24.7514442 109.271605,24.7304747 L109.127935,24.728228 C108.121121,24.728228 107.302392,25.1157502 106.671748,25.8907946 L106.596974,25.98566 C105.982122,26.7904165 105.662398,27.8792673 105.637804,29.2522124 L105.636267,29.4253102 C105.636267,30.0400119 105.70289,30.6098065 105.836134,31.1346939 L105.883016,31.3079931 C106.032561,31.8281022 106.242839,32.2786344 106.513849,32.6595895 L106.596974,32.7717887 C106.88013,33.1385952 107.21688,33.4249002 107.607224,33.6307038 L107.725935,33.6900298 C108.127225,33.8794998 108.56421,33.9828471 109.036889,34.0000716 L109.179764,34.0026553 C109.842035,34.0026553 110.415753,33.855869 110.90092,33.5622966 L111.003529,33.4971414 C111.476045,33.1823599 111.897633,32.7131901 112.268292,32.0896321 L112.34694,31.9536494 C112.539232,31.5906594 112.745173,31.2979402 112.964766,31.0754918 L113.047752,30.9953677 C113.277956,30.7838492 113.555286,30.6692768 113.879743,30.6516502 L113.9694,30.6492466 C114.373212,30.6492466 114.713009,30.7961446 114.988792,31.0899407 L115.046908,31.1551455 C115.288428,31.4403071 115.427766,31.7413649 115.464923,32.0583189 L115.472524,32.145155 Z M128.455109,30.2369044 L121.523977,30.2369044 C121.532156,31.0068494 121.674035,31.6918306 121.949615,32.2918479 L122.010714,32.4191226 C122.305394,33.0070022 122.69059,33.4596104 123.1663,33.7769472 L123.269623,33.8428775 C123.755771,34.1393693 124.28855,34.2982043 124.867962,34.3193823 L125.0025,34.3218259 C125.373625,34.3218259 125.716475,34.2828179 126.031049,34.2048019 L126.164136,34.1689782 C126.470851,34.0795925 126.769227,33.9461876 127.059264,33.7687637 L127.183055,33.6900298 C127.446254,33.5161094 127.692788,33.3322507 127.922656,33.1384538 L128.091933,32.9912426 L128.336829,32.7681996 L128.720369,32.4093351 L129.050783,32.0940814 L129.169066,31.9802149 C129.334316,31.8348457 129.563921,31.7555534 129.857879,31.742338 L129.947997,31.7403557 C130.27827,31.7403557 130.551432,31.8246753 130.767483,31.9933147 L130.830585,32.046436 C131.036918,32.2334852 131.148682,32.4913835 131.165877,32.8201311 L131.168221,32.9115462 C131.168221,33.2122364 131.062712,33.5596204 130.851692,33.9536979 L130.791525,34.0623313 C130.561552,34.4648986 130.22428,34.8524766 129.77971,35.225065 L129.655804,35.3263084 C129.188711,35.698995 128.610894,36.0130693 127.922353,36.2685316 L127.747912,36.331176 C127.036708,36.578332 126.226736,36.710737 125.317995,36.728391 L125.106532,36.730428 C122.893803,36.730428 121.159606,36.1015837 119.903941,34.843895 L119.797484,34.7345531 C118.571228,33.4428555 117.940067,31.7042 117.904001,29.5185867 L117.902362,29.3186633 C117.902362,28.3219359 118.036644,27.3921557 118.305209,26.5293229 L118.36957,26.331396 C118.660511,25.4744908 119.075665,24.731616 119.615031,24.1027717 L119.732511,23.9697647 C120.289856,23.3569709 120.967815,22.8775479 121.766387,22.5314959 L121.939356,22.4593833 C122.754926,22.1323842 123.653486,21.9579847 124.635036,21.9361848 L124.846638,21.9338491 C126.168301,21.9338491 127.310649,22.2066558 128.273684,22.7522692 L128.41004,22.8320698 C129.348647,23.3993671 130.063998,24.1238879 130.556091,25.0056323 L130.63604,25.1540454 C131.100273,26.0473818 131.346043,26.9564063 131.373351,27.8811188 L131.375911,28.0546862 C131.375911,28.9303626 131.141363,29.5106725 130.672266,29.7956158 L130.60975,29.8311073 C130.099476,30.1016387 129.381263,30.2369044 128.455109,30.2369044 Z M121.523977,28.1744233 L127.949217,28.1744233 C127.866352,26.9863929 127.563799,26.0845116 127.041557,25.4687793 L126.968981,25.3865895 C126.427888,24.7980892 125.723222,24.490464 124.854983,24.463714 L124.729836,24.4618033 C123.889276,24.4618033 123.192018,24.7454802 122.63806,25.3128341 L122.556041,25.4000647 C121.989182,26.0255723 121.64516,26.9503585 121.523977,28.1744233 Z M137.82669,18.7667837 L137.82669,24.156108 C138.231629,23.6770056 138.627847,23.2877176 139.015344,22.9882439 L139.144187,22.8917458 C139.524987,22.6159099 139.941692,22.4013201 140.394305,22.2479765 L140.565717,22.1933436 C141.027083,22.0553116 141.519311,21.9786271 142.0424,21.9632902 L142.240005,21.9604145 C143.083863,21.9604145 143.838265,22.1319757 144.503214,22.4750979 L144.635011,22.5460098 C145.288032,22.9120068 145.809787,23.4338865 146.200277,24.1116487 L146.276624,24.2492796 C146.502642,24.6403694 146.661936,25.0728321 146.754506,25.5466676 L146.782892,25.7061451 C146.859897,26.1832112 146.902678,26.7250726 146.911235,27.3317291 L146.912839,27.5622626 L146.912839,34.5216444 C146.912839,35.2062618 146.769119,35.733658 146.48168,36.1038329 L146.426101,36.1713982 C146.12189,36.5207918 145.724483,36.7064072 145.233881,36.7282443 L145.134518,36.730428 C143.995698,36.730428 143.412053,36.0305197 143.383582,34.6307031 L143.382487,34.5216444 L143.382487,28.387332 C143.382487,27.2834792 143.230072,26.4216962 142.925242,25.8019829 L142.875844,25.7061451 C142.552073,25.1056578 141.94898,24.7934044 141.066564,24.7693849 L140.954807,24.7678837 C140.365447,24.7678837 139.830614,24.9283089 139.350308,25.2491592 L139.24822,25.3203683 C138.775704,25.663897 138.414423,26.1252572 138.164377,26.7044487 L138.112498,26.8303648 C138.001351,27.1461345 137.922621,27.6052283 137.87631,28.2076462 L137.858447,28.4746002 C137.853154,28.5665099 137.848523,28.6613445 137.844553,28.7591041 L137.831156,29.2187661 L137.827186,29.5471448 L137.82669,34.5216444 C137.82669,35.1951655 137.687942,35.7186694 137.410446,36.092156 L137.353097,36.1648531 C137.056867,36.5183374 136.652367,36.706126 136.139597,36.7282187 L136.0356,36.730428 C134.896536,36.730428 134.312765,36.0305197 134.284289,34.6307031 L134.283193,34.5216444 L134.283193,18.7667837 C134.283193,18.0739527 134.419261,17.5441408 134.691397,17.1773479 L134.744017,17.1104847 C135.032032,16.7651818 135.428426,16.5817396 135.9332,16.5601581 L136.0356,16.558 C136.562805,16.558 136.981741,16.7217783 137.292407,17.0493348 L137.353097,17.1170298 C137.668826,17.4894596 137.82669,18.0393776 137.82669,18.7667837 Z M160.30827,30.2369044 L153.376763,30.2369044 C153.384942,31.0068494 153.526821,31.6918306 153.802401,32.2918479 L153.8635,32.4191226 C154.158414,33.0070022 154.543734,33.4596104 155.019459,33.7769472 L155.122784,33.8428775 C155.608932,34.1393693 156.141712,34.2982043 156.721123,34.3193823 L156.855661,34.3218259 C157.226567,34.3218259 157.56939,34.2828179 157.884128,34.2048019 L158.017297,34.1689782 C158.324012,34.0795925 158.622388,33.9461876 158.912426,33.7687637 L159.036217,33.6900298 C159.299215,33.5161094 159.545629,33.3322507 159.775457,33.1384538 L159.944719,32.9912426 L160.189643,32.7681996 L160.471273,32.5056377 L160.78961,32.203557 L161.022227,31.9802149 C161.187478,31.8348457 161.416979,31.7555534 161.71073,31.742338 L161.800783,31.7403557 C162.131284,31.7403557 162.40457,31.8246753 162.620641,31.9933147 L162.683746,32.046436 C162.88985,32.2334852 163.00149,32.4913835 163.018665,32.8201311 L163.021007,32.9115462 C163.021007,33.2122364 162.915603,33.5596204 162.704794,33.9536979 L162.644687,34.0623313 C162.414713,34.4648986 162.077442,34.8524766 161.632872,35.225065 L161.508965,35.3263084 C161.041641,35.698995 160.463807,36.0130693 159.775462,36.2685316 L159.601073,36.331176 C158.88987,36.578332 158.07979,36.710737 157.170833,36.728391 L156.959318,36.730428 C154.746832,36.730428 153.01276,36.1015837 151.757102,34.843895 L151.650646,34.7345531 C150.42439,33.4428555 149.793229,31.7042 149.757162,29.5185867 L149.755523,29.3186633 C149.755523,28.3219359 149.889806,27.3921557 150.158371,26.5293229 L150.222731,26.331396 C150.513672,25.4744908 150.928826,24.731616 151.468193,24.1027717 L151.585672,23.9697647 C152.143017,23.3569709 152.820867,22.8775479 153.619222,22.5314959 L153.792142,22.4593833 C154.607946,22.1323842 155.50663,21.9579847 156.488196,21.9361848 L156.6998,21.9338491 C158.021463,21.9338491 159.163697,22.2066558 160.126503,22.7522692 L160.262826,22.8320698 C161.201433,23.3993671 161.916784,24.1238879 162.408877,25.0056323 L162.488826,25.1540454 C162.953059,26.0473818 163.198829,26.9564063 163.226137,27.8811188 L163.228697,28.0546862 C163.228697,28.9303626 162.994264,29.5106725 162.525397,29.7956158 L162.462911,29.8311073 C161.952387,30.1016387 161.234174,30.2369044 160.30827,30.2369044 Z M153.376763,28.1744233 L159.802003,28.1744233 C159.719377,26.9863929 159.416949,26.0845116 158.894718,25.4687793 L158.822142,25.3865895 C158.281049,24.7980892 157.576383,24.490464 156.708145,24.463714 L156.582998,24.4618033 C155.742438,24.4618033 155.045066,24.7454802 154.490881,25.3128341 L154.408827,25.4000647 C153.841968,26.0255723 153.497946,26.9503585 153.376763,28.1744233 Z M168.797264,37.1828109 L169.121756,36.3712167 L164.760269,25.1140047 C164.508872,24.5068972 164.375318,24.0557851 164.359605,23.7606684 L164.358034,23.7037251 C164.358034,23.427661 164.41956,23.1691392 164.54261,22.9281599 L164.591638,22.8386149 C164.73007,22.6020211 164.914696,22.4075088 165.145515,22.2550778 L165.234237,22.1998887 C165.476605,22.0579781 165.727479,21.9791389 165.98686,21.963371 L166.084526,21.9604145 C166.561015,21.9604145 166.928232,22.1053003 167.186176,22.3950717 L167.239778,22.4593833 C167.479217,22.766441 167.69295,23.1962998 167.880974,23.7489599 L167.927445,23.8896833 L170.925991,32.8314648 L173.870919,24.2145128 L173.970104,23.9345013 L174.089787,23.6137297 L174.204691,23.3254502 C174.249697,23.2166369 174.293556,23.1156216 174.336269,23.0224044 L174.378599,22.9317865 C174.54385,22.5850471 174.717998,22.3409762 174.901044,22.1995737 L174.956225,22.160233 C175.139202,22.0403419 175.390526,21.9744018 175.710195,21.9624127 L175.819283,21.9604145 C176.054139,21.9604145 176.280657,22.016421 176.498835,22.1284339 L176.591829,22.1798684 C176.811051,22.3099151 176.98576,22.4803194 177.115957,22.6910813 L177.162695,22.7720087 C177.280123,22.9894092 177.346176,23.2170284 177.360855,23.4548663 L177.364,23.5574225 L177.334025,23.6970356 L177.273834,23.9564459 L177.195369,24.2758451 C177.136968,24.5085816 177.068779,24.743917 176.990801,24.9818512 L176.909561,25.2206516 L172.288932,37.6217186 C171.91571,38.6446334 171.55008,39.4610206 171.192042,40.0708803 L171.120535,40.1900986 C170.76533,40.7695936 170.302598,41.2235433 169.732338,41.5519478 L169.608493,41.6203986 C169.015901,41.9345641 168.22845,42.1003737 167.246143,42.1178273 L167.070771,42.1193673 C166.090132,42.1193673 165.340977,42.0164568 164.823305,41.8106359 L164.734355,41.7732463 C164.24127,41.5542801 163.9824,41.1630853 163.957746,40.599662 L163.955799,40.5092691 C163.955799,40.1244993 164.06087,39.8209773 164.271011,39.5987032 L164.325735,39.5448273 C164.554743,39.3346136 164.886298,39.2219991 165.3204,39.2069839 L165.422398,39.2052513 C165.574628,39.2052513 165.724135,39.2222532 165.870918,39.256257 L165.980494,39.2849477 C166.16807,39.3294374 166.33452,39.3553897 166.479844,39.3628046 L166.564504,39.3650291 C166.930684,39.3650291 167.226693,39.3147164 167.45253,39.2140911 L167.52521,39.1786859 C167.732858,39.0682602 167.921713,38.8860427 168.091773,38.6320333 L168.154664,38.5334146 C168.211905,38.4392755 168.271812,38.3314797 168.334387,38.2100271 L168.430248,38.0176058 C168.462868,37.9500511 168.496156,37.8790823 168.530109,37.8046993 L168.633971,37.5713078 C168.686902,37.4494907 168.741333,37.3199918 168.797264,37.1828109 Z M132.210426,48.6383014 L132.632191,48.6383014 L132.632191,48.0927469 C132.632191,47.5723033 132.69131,47.1496684 132.809548,46.8248421 L132.843261,46.7386782 C132.972018,46.4318706 133.182722,46.201412 133.475372,46.0473023 L133.557218,46.0071654 C133.866687,45.8657198 134.282187,45.7895568 134.803717,45.7786764 L134.936308,45.7773163 C135.934719,45.7773163 136.451138,46.0192233 136.485565,46.5030371 L136.48741,46.5558 C136.48741,46.7033538 136.446003,46.8321406 136.36319,46.9421602 L136.325164,46.9881625 C136.23052,47.0930448 136.120925,47.152041 135.996376,47.1651513 L135.942083,47.1679607 L135.870648,47.164692 L135.774809,47.1548862 L135.654566,47.138543 L135.585292,47.12792 C135.450288,47.1065649 135.331868,47.0937519 135.230034,47.0894809 L135.156768,47.0878793 C134.861166,47.0878793 134.663381,47.1701112 134.563413,47.3345752 L134.540458,47.3774043 C134.459669,47.5489747 134.414786,47.786253 134.40581,48.089239 L134.404127,48.2059388 L134.404127,48.6383014 L134.839036,48.6383014 C135.484471,48.6383014 135.82122,48.8289892 135.849282,49.2103646 L135.851195,49.2635523 C135.851195,49.5360088 135.775771,49.7171268 135.624923,49.8069065 L135.581912,49.8291272 C135.422337,49.9000826 135.208952,49.9395022 134.941757,49.9473861 L134.839036,49.9488643 L134.404127,49.9488643 L134.404127,54.7591385 C134.404127,55.0858109 134.335324,55.3418457 134.197719,55.5272429 L134.154373,55.5807429 C134.004296,55.7502999 133.814873,55.8435562 133.586107,55.8605119 L133.508394,55.8633378 C133.282602,55.8633378 133.090881,55.7870372 132.933232,55.6344359 L132.881944,55.5807429 C132.730578,55.4094732 132.648015,55.167566 132.634255,54.8550211 L132.632191,54.7591385 L132.632191,49.9488643 L132.145453,49.9488643 C131.910875,49.9488643 131.724172,49.9006989 131.585344,49.804368 L131.535528,49.7659861 C131.408447,49.6576139 131.337846,49.5202409 131.323726,49.3538673 L131.321078,49.2901178 C131.321078,48.8555735 131.617528,48.6383014 132.210426,48.6383014 Z M138.538663,53.0634025 L138.538018,54.7591385 C138.538018,55.0965328 138.467223,55.3566075 138.325631,55.5393627 L138.28526,55.587288 C138.133155,55.7529179 137.944442,55.8440144 137.719123,55.8605773 L137.642661,55.8633378 C137.412813,55.8633378 137.219774,55.7879728 137.063544,55.6372426 L137.012831,55.584208 C136.863514,55.414805 136.782068,55.1721129 136.768494,54.8561316 L136.766458,54.7591385 L136.766458,49.702845 C136.766458,48.9168609 137.033228,48.5093136 137.56677,48.4802031 L137.629516,48.4785236 C137.899196,48.4785236 138.099868,48.5586469 138.231533,48.7188935 L138.265731,48.7645836 C138.382458,48.9362196 138.45193,49.1815575 138.474149,49.5005971 L138.479805,49.6096734 C138.668313,49.2783965 138.861074,49.0190129 139.058089,48.8315225 L139.132169,48.7645836 C139.334521,48.5912139 139.598744,48.4966486 139.924838,48.4808877 L140.024522,48.4785236 C140.355245,48.4785236 140.677462,48.5538645 140.991172,48.7045463 L141.108415,48.7645836 C141.435344,48.9425765 141.609706,49.174678 141.631501,49.460888 L141.633836,49.5230469 C141.633836,49.7201703 141.574883,49.8866707 141.456976,50.022548 L141.409997,50.0720665 C141.279424,50.19806 141.139746,50.2689313 140.990961,50.2846805 L140.926639,50.2880553 C140.90711,50.2880553 140.879321,50.2843708 140.843274,50.2770017 L140.760168,50.257351 L140.655039,50.2278749 L140.456051,50.1652381 C140.242728,50.0948369 140.050927,50.0546076 139.880648,50.0445503 L139.797302,50.042036 C139.566508,50.042036 139.373302,50.0971981 139.217683,50.2075223 L139.161088,50.2514796 C139.015089,50.3758226 138.898072,50.5535024 138.810037,50.7845191 L138.778383,50.8736505 C138.698856,51.1144081 138.640895,51.3949597 138.6045,51.7153053 L138.590222,51.8550327 C138.563154,52.1498908 138.546612,52.4951341 138.540596,52.8907626 L138.538663,53.0634025 Z M144.372488,49.5099567 L144.372488,54.7591385 C144.372488,55.0897776 144.302858,55.3471276 144.163597,55.5311884 L144.11973,55.584208 C143.967849,55.7516859 143.77916,55.8437988 143.55366,55.8605465 L143.477131,55.8633378 C143.243451,55.8633378 143.049218,55.7861016 142.894431,55.6316292 L142.844296,55.5772778 C142.6968,55.4039081 142.616347,55.1627645 142.602939,54.853847 L142.600927,54.7591385 L142.600927,49.5630876 C142.600927,49.2364152 142.667971,48.983138 142.802059,48.8032561 L142.844296,48.7514934 C142.990318,48.5877115 143.175785,48.4976315 143.400698,48.4812533 L143.477131,48.4785236 C143.71081,48.4785236 143.90768,48.5522254 144.06774,48.6996291 L144.11973,48.7514934 C144.288235,48.9332166 144.372488,49.1860377 144.372488,49.5099567 Z M143.574746,47.6305201 L143.49666,47.6334338 C143.277439,47.6334338 143.086409,47.5721876 142.923569,47.4496953 L142.863826,47.4008898 C142.706087,47.2611323 142.61933,47.069295 142.603556,46.8253778 L142.600927,46.7421432 C142.600927,46.5106772 142.673634,46.3160101 142.819047,46.1581419 L142.870211,46.1068821 C143.029786,45.9590395 143.212507,45.8769047 143.418375,45.8604778 L143.49666,45.8573977 C143.700525,45.8573977 143.883815,45.9169201 144.046531,46.0359648 L144.106585,46.0833967 C144.267738,46.2205991 144.35564,46.4145449 144.37029,46.6652341 L144.372488,46.7421432 C144.372488,46.9937066 144.302418,47.195789 144.162278,47.3483902 L144.112969,47.3974247 C143.978404,47.5197998 143.824225,47.5945846 143.65043,47.621779 L143.574746,47.6305201 Z M151.148134,52.616576 L147.682756,52.616576 C147.686539,52.9834447 147.751057,53.3116795 147.876309,53.6012807 L147.926125,53.7080701 C148.066337,53.9880128 148.247699,54.2066079 148.470209,54.3638554 L148.555579,54.4199476 C148.788154,54.5618582 149.042193,54.6406975 149.317697,54.6564653 L149.422017,54.6594218 C149.591474,54.6594218 149.749234,54.643077 149.895295,54.6103873 L150.002648,54.5828054 C150.14286,54.5419434 150.279628,54.4826831 150.41295,54.4050247 L150.512295,54.3433312 C150.635482,54.2619023 150.751486,54.1760699 150.860307,54.0858339 L150.966734,53.9941301 L151.139649,53.8356397 L151.424424,53.5660387 L151.505301,53.4882313 C151.583204,53.4198101 151.689713,53.3807123 151.824826,53.3709378 L151.894766,53.3684942 C152.0536,53.3684942 152.186077,53.4076004 152.292195,53.485813 L152.33606,53.5217269 C152.434428,53.610888 152.48976,53.7323757 152.502056,53.8861899 L152.504691,53.9540894 C152.504691,54.0976007 152.45667,54.2624337 152.36063,54.4485885 L152.31653,54.5296745 C152.20677,54.7216966 152.048127,54.906939 151.840602,55.0854017 L151.748669,55.1614706 C151.527177,55.3382207 151.256036,55.4885398 150.935245,55.6124277 L150.794723,55.6639044 C150.454207,55.7820872 150.068487,55.8477443 149.637562,55.8608757 L149.473846,55.8633378 C148.383287,55.8633378 147.525206,55.557835 146.899604,54.9468293 L146.819322,54.8654004 C146.21508,54.2290345 145.899823,53.3755616 145.873552,52.3049818 L145.871761,52.157648 C145.871761,51.6805819 145.933385,51.2342402 146.056633,50.8186231 L146.10574,50.6642069 C146.245677,50.2509406 146.443618,49.8906898 146.69956,49.5834544 L146.787023,49.4830062 C147.05563,49.187783 147.380415,48.9544112 147.761378,48.7828907 L147.890446,48.728008 C148.283667,48.5704632 148.715523,48.4838136 149.186013,48.4680591 L149.344275,48.4654334 C149.986892,48.4654334 150.544772,48.5944591 151.017917,48.8525105 L151.1256,48.9143512 C151.582986,49.1906084 151.934341,49.5415523 152.179665,49.9671829 L152.238787,50.0751466 C152.46463,50.5104181 152.586961,50.9530225 152.605781,51.4029599 L152.608348,51.5258519 C152.608348,51.9522683 152.497221,52.2386061 152.274969,52.3848653 L152.225643,52.4140625 C151.970506,52.5490715 151.611336,52.616576 151.148134,52.616576 Z M147.682756,51.585528 L150.895376,51.585528 C150.854948,51.006033 150.709937,50.5627037 150.460343,50.2555402 L150.405258,50.1918036 C150.142073,49.9055602 149.801493,49.7522156 149.383516,49.7317696 L149.285686,49.7294105 C148.875797,49.7294105 148.534128,49.8641904 148.26068,50.1337501 L148.198788,50.1983487 C147.915108,50.5112308 147.743097,50.9736239 147.682756,51.585528 Z M155.710926,49.4830062 L155.710926,49.702845 C155.994082,49.319705 156.301346,49.0291575 156.632716,48.8312025 L156.73285,48.7745938 C157.069269,48.5951573 157.451212,48.4972829 157.878678,48.4809705 L158.008283,48.4785236 C158.433018,48.4785236 158.816678,48.5646463 159.159264,48.7368918 L159.260807,48.7911491 C159.597964,48.982198 159.856962,49.2460372 160.0378,49.5826668 L160.085182,49.6762796 C160.185191,49.8663629 160.255031,50.0694579 160.294704,50.2855645 L160.312026,50.3947021 C160.342478,50.6197386 160.359608,50.8991111 160.363414,51.2328197 L160.36423,51.3791644 L160.36423,54.7591385 C160.36423,55.0897776 160.297186,55.3471276 160.163099,55.5311884 L160.120861,55.584208 C159.97484,55.7516859 159.789372,55.8437988 159.564459,55.8605465 L159.488027,55.8633378 C159.250517,55.8633378 159.053264,55.7861016 158.896268,55.6316292 L158.845428,55.5772778 C158.69611,55.4039081 158.614664,55.1627645 158.60109,54.853847 L158.599054,54.7591385 L158.599054,51.7318305 C158.599054,51.1790793 158.529932,50.7463955 158.391686,50.4337792 L158.355685,50.3581265 C158.20358,50.0607088 157.909755,49.9027056 157.474212,49.884117 L157.385214,49.8822582 C157.100833,49.8822582 156.839369,49.9604299 156.600822,50.1167735 L156.522156,50.1717832 C156.288476,50.3454983 156.110873,50.5775303 155.989347,50.8678793 L155.950915,50.9668222 C155.885941,51.1697207 155.845333,51.5048691 155.829089,51.9722672 L155.822998,52.2169872 L155.821475,52.3476127 L155.820968,54.7591385 C155.820968,55.0965328 155.751014,55.3566075 155.611105,55.5393627 L155.571214,55.587288 C155.421362,55.7529179 155.232064,55.8440144 155.003319,55.8605773 L154.92561,55.8633378 C154.695762,55.8633378 154.502825,55.7861016 154.346798,55.6316292 L154.296156,55.5772778 C154.146611,55.4039081 154.065041,55.1627645 154.051446,54.853847 L154.049407,54.7591385 L154.049407,49.5099567 C154.049407,49.1954178 154.11014,48.9532136 154.231605,48.7833439 L154.269866,48.7345531 C154.402367,48.5809354 154.578573,48.4964457 154.798484,48.4810839 L154.873406,48.4785236 C155.003186,48.4785236 155.122534,48.5047255 155.231449,48.5571292 L155.295546,48.5917156 C155.403066,48.6563967 155.492283,48.7487041 155.563197,48.8686376 L155.597128,48.9309065 C155.672993,49.0818292 155.710926,49.2658624 155.710926,49.4830062 Z M166.984015,54.8257447 L166.984015,54.6459465 C166.77992,54.8855307 166.578308,55.08674 166.37918,55.2495742 L166.279822,55.3277935 C166.081522,55.4780561 165.868781,55.5972982 165.6416,55.6855197 L165.526806,55.7270455 C165.295026,55.8049268 165.045035,55.8494305 164.776832,55.8605564 L164.641213,55.8633378 C164.259485,55.8633378 163.903208,55.7888044 163.572384,55.6397375 L163.463052,55.587288 C163.141899,55.4237029 162.859223,55.1979591 162.615026,54.9100564 L162.525256,54.7991792 C162.290678,54.4955087 162.106547,54.1445854 161.972863,53.7464092 L161.925096,53.5948781 C161.803801,53.1848887 161.736415,52.7450875 161.722938,52.2754743 L161.720411,52.0979719 C161.720411,51.014073 161.966911,50.1585459 162.459911,49.5313906 L162.532016,49.4433505 C163.048014,48.8379449 163.719943,48.5214829 164.547801,48.4939644 L164.667128,48.4919988 C165.13124,48.4919988 165.52924,48.5661365 165.861128,48.7144118 L165.958711,48.7611186 C166.273964,48.9228214 166.582321,49.162696 166.883783,49.4807423 L166.984015,49.5896531 L166.984015,46.9084661 C166.984015,46.5696602 167.04392,46.3060526 167.163729,46.1176432 L167.20147,46.0633763 C167.33326,45.8900066 167.515955,45.7954414 167.749552,45.7796805 L167.821159,45.7773163 C168.0625,45.7773163 168.25395,45.8483154 168.39551,45.9903136 L168.440848,46.0402759 C168.572639,46.1994121 168.644525,46.4273827 168.656506,46.7241879 L168.658303,46.8152945 L168.658303,54.8257447 C168.658303,55.1402835 168.593949,55.3832302 168.465242,55.5545847 L168.424699,55.6038433 C168.284536,55.75954 168.107564,55.8451732 167.893783,55.8607429 L167.821159,55.8633378 C167.603028,55.8633378 167.419172,55.7906755 167.26959,55.6453509 L167.220999,55.5942181 C167.06301,55.4145483 166.984015,55.1583905 166.984015,54.8257447 Z M163.501337,52.0045389 L163.498732,52.157648 C163.498732,52.6007137 163.55927,52.984527 163.680346,53.3090876 L163.722946,53.41508 C163.85725,53.7264734 164.036171,53.9687389 164.25971,54.1418765 L164.335876,54.1970287 C164.56667,54.3526284 164.816258,54.4390728 165.08464,54.4563616 L165.186165,54.4596033 C165.463029,54.4596033 165.718527,54.3938955 165.95266,54.2624798 L166.039458,54.2101189 C166.271335,54.0604283 166.461027,53.838907 166.608536,53.5455549 L166.656143,53.4451105 C166.7959,53.1326717 166.872131,52.7495953 166.884837,52.2958813 L166.886742,52.157648 C166.886742,51.7226674 166.824481,51.3423654 166.699957,51.0167421 L166.656143,50.9102262 C166.518008,50.5969847 166.335966,50.3501684 166.110016,50.1697774 L166.033073,50.1121072 C165.800499,49.948294 165.54824,49.8572866 165.276297,49.8390851 L165.173395,49.8356724 C164.881352,49.8356724 164.617297,49.9120769 164.381229,50.0648861 L164.303577,50.1186523 C164.073953,50.2882093 163.890672,50.5242954 163.753732,50.8269107 L163.709801,50.9302465 C163.584723,51.2437276 163.515235,51.601825 163.501337,52.0045389 Z M176.138829,53.3895348 L176.141522,53.4882313 C176.141522,53.9477368 176.041482,54.3466377 175.841403,54.6849338 L175.784355,54.7756938 C175.564792,55.1052596 175.248371,55.3611228 174.835094,55.5432833 L174.729757,55.587288 C174.303319,55.7559851 173.79241,55.8473627 173.19703,55.8614208 L173.032559,55.8633378 C172.449592,55.8633378 171.942996,55.7795481 171.512771,55.6119685 L171.39733,55.5641876 C170.980761,55.3811383 170.664232,55.156248 170.447742,54.8895168 L170.39118,54.8157345 C170.196485,54.5461528 170.089402,54.2757395 170.069933,54.0044945 L170.066688,53.9140487 C170.066688,53.7367745 170.121388,53.5822141 170.230789,53.4503675 L170.274378,53.4019898 C170.397453,53.2758216 170.54961,53.2057282 170.730848,53.1917095 L170.800175,53.189081 C170.962953,53.189081 171.092567,53.2247483 171.189018,53.2960828 L171.228324,53.3288385 C171.311366,53.4062676 171.391366,53.5099877 171.468323,53.6399988 L171.514132,53.7211604 C171.675488,54.0090884 171.865133,54.2321197 172.083069,54.3902545 L172.16612,54.446513 C172.396242,54.5916489 172.702409,54.6708139 173.08462,54.6840081 L173.201565,54.6859872 C173.520874,54.6859872 173.788467,54.6203936 174.004345,54.4892064 L174.074388,54.443048 C174.280838,54.2958121 174.393446,54.1293789 174.412214,53.9437483 L174.41503,53.8874833 C174.41503,53.5927458 174.314546,53.3717109 174.113579,53.2243786 L174.061243,53.189081 C173.84376,53.0537956 173.496138,52.9243058 173.018378,52.8006115 L172.896227,52.7698087 C172.34175,52.6286396 171.881011,52.4811067 171.514008,52.3272101 L171.406719,52.2808501 C171.066426,52.129129 170.786767,51.9344138 170.567744,51.6967046 L170.488452,51.6055483 C170.278217,51.3493263 170.164339,51.0390778 170.14682,50.6748026 L170.144431,50.5741153 C170.144431,50.2467826 170.23032,49.9356663 170.402098,49.6407665 L170.462538,49.5430672 C170.65533,49.2485954 170.931203,49.0083215 171.290156,48.8222455 L171.400335,48.7680487 C171.779034,48.5911167 172.22958,48.4952785 172.751975,48.4805342 L172.896227,48.4785236 C173.297586,48.4785236 173.663288,48.5158612 173.993336,48.5905365 L174.132601,48.6248262 C174.45268,48.7103939 174.726273,48.821312 174.953379,48.9575803 L175.047864,49.017533 C175.261688,49.1610443 175.430847,49.3182133 175.55534,49.48904 L175.60596,49.5630876 C175.717692,49.7375919 175.780541,49.9088537 175.794508,50.0768731 L175.7975,50.1486828 C175.7975,50.3339424 175.743591,50.48939 175.635774,50.6150258 L175.592815,50.6607418 C175.471743,50.7791528 175.305367,50.8449366 175.093688,50.8580934 L175.012185,50.8605603 C174.853131,50.8605603 174.714781,50.8197837 174.597134,50.7382304 L174.547981,50.7007825 C174.43853,50.6094809 174.315649,50.4791443 174.179341,50.3097728 L174.110067,50.2218341 C173.998231,50.0738204 173.869877,49.9505826 173.725004,49.8521207 L173.636099,49.7960167 C173.474743,49.7013335 173.261951,49.6487318 172.997724,49.6382114 L172.896227,49.6362389 C172.611796,49.6362389 172.369997,49.691401 172.170831,49.8017252 L172.098142,49.8456825 C171.90535,49.9728514 171.800191,50.128339 171.782664,50.3121452 L171.780035,50.3681367 C171.780035,50.5376537 171.841561,50.6799953 171.964611,50.7951614 L172.013639,50.8370749 C172.149908,50.9437538 172.32768,51.0343186 172.546954,51.1087693 L172.643469,51.1396902 L172.907693,51.2163489 L173.225797,51.3026404 L173.59778,51.3985649 L173.733747,51.4326803 C174.228146,51.5564985 174.641119,51.7017307 174.972664,51.868377 L175.080163,51.9247189 C175.389743,52.0944641 175.632754,52.291182 175.809194,52.5148725 L175.872239,52.6000207 C176.015856,52.8076164 176.102027,53.0386204 176.130751,53.2930329 L176.138829,53.3895348 Z M110.786825,48.6383014 L111.208589,48.6383014 L111.208589,48.0927469 C111.208589,47.5723033 111.267709,47.1496684 111.385947,46.8248421 L111.419659,46.7386782 C111.548647,46.4318706 111.75937,46.201412 112.051829,46.0473023 L112.133617,46.0071654 C112.443086,45.8657198 112.858585,45.7895568 113.380116,45.7786764 L113.512707,45.7773163 C114.511117,45.7773163 115.027536,46.0192233 115.061964,46.5030371 L115.063809,46.5558 C115.063809,46.7033538 115.022402,46.8321406 114.939589,46.9421602 L114.901563,46.9881625 C114.806919,47.0930448 114.697323,47.152041 114.572775,47.1651513 L114.518482,47.1679607 L114.447047,47.164692 L114.351208,47.1548862 L114.230964,47.138543 L114.161691,47.12792 C114.026686,47.1065649 113.908267,47.0937519 113.806433,47.0894809 L113.733166,47.0878793 C113.437796,47.0878793 113.240028,47.1701112 113.139865,47.3345752 L113.116857,47.3774043 C113.036068,47.5489747 112.991185,47.786253 112.982209,48.089239 L112.980526,48.2059388 L112.980526,48.6383014 L113.415435,48.6383014 C114.061109,48.6383014 114.397983,48.8289892 114.426056,49.2103646 L114.42797,49.2635523 C114.42797,49.5360088 114.35244,49.7171268 114.201381,49.8069065 L114.158311,49.8291272 C113.998736,49.9000826 113.78535,49.9395022 113.518155,49.9473861 L113.415435,49.9488643 L112.980526,49.9488643 L112.980526,54.7591385 C112.980526,55.0858109 112.911723,55.3418457 112.774118,55.5272429 L112.730772,55.5807429 C112.580694,55.7502999 112.391272,55.8435562 112.162505,55.8605119 L112.084793,55.8633378 C111.859,55.8633378 111.667381,55.7870372 111.509935,55.6344359 L111.458719,55.5807429 C111.307125,55.4094732 111.224438,55.167566 111.210657,54.8550211 L111.208589,54.7591385 L111.208589,49.9488643 L110.721852,49.9488643 C110.487274,49.9488643 110.300571,49.9006989 110.161743,49.804368 L110.111927,49.7659861 C109.984845,49.6576139 109.914245,49.5202409 109.900124,49.3538673 L109.897477,49.2901178 C109.897477,48.8555735 110.193926,48.6383014 110.786825,48.6383014 Z M121.810536,51.9909591 L121.813541,52.1711232 C121.813541,52.6520679 121.748553,53.0997531 121.618578,53.5141788 L121.566792,53.6680294 C121.418742,54.0792166 121.211169,54.438324 120.944071,54.7453514 L120.852834,54.845765 C120.572509,55.1409882 120.243105,55.37436 119.864621,55.5458805 L119.736642,55.6007632 C119.347252,55.758308 118.914055,55.8449576 118.437052,55.8607121 L118.276429,55.8633378 C117.793522,55.8633378 117.354421,55.7915071 116.959127,55.6478457 L116.828984,55.5972982 C116.443425,55.4376744 116.10441,55.2160953 115.811939,54.932561 L115.716172,54.8357549 C115.433819,54.5382217 115.212816,54.1922469 115.053161,53.7978306 L115.002215,53.6645644 C114.857997,53.2643855 114.777875,52.8265869 114.761851,52.3511685 L114.758846,52.1711232 C114.758846,51.6821932 114.823735,51.2300717 114.953512,50.8147588 L115.00522,50.6607418 C115.153269,50.2495546 115.359119,49.8923184 115.622768,49.5890332 L115.712792,49.4899363 C115.989287,49.1984092 116.318308,48.9671742 116.699856,48.7962312 L116.828984,48.7414832 C117.222431,48.5837074 117.652585,48.4969308 118.119448,48.4811532 L118.276429,48.4785236 C118.75911,48.4785236 119.201636,48.5503543 119.604006,48.6940157 L119.736642,48.7445633 C120.129863,48.9041871 120.472281,49.1249345 120.763896,49.4068057 L120.859219,49.5030265 C121.139769,49.7984807 121.359781,50.1442476 121.519256,50.5403271 L121.570172,50.674217 C121.696363,51.0259706 121.77348,51.4059833 121.801522,51.8142553 L121.810536,51.9909591 Z M120.033357,52.3064726 L120.03522,52.1711232 C120.03522,51.4766673 119.895482,50.9264762 119.616005,50.5205497 L119.558247,50.441288 C119.259904,50.0545968 118.865725,49.8491671 118.375709,49.8249989 L118.276429,49.8225821 C117.964781,49.8225821 117.686496,49.8971156 117.441572,50.0461825 L117.361166,50.098632 C117.123656,50.2642619 116.935225,50.5008909 116.795874,50.8085189 L116.751242,50.9136912 C116.624383,51.2328761 116.553905,51.5995166 116.53981,52.0136127 L116.537167,52.1711232 C116.537167,52.5929765 116.592659,52.9674756 116.703642,53.2946204 L116.747861,53.41508 C116.874503,53.7345586 117.050123,53.9865725 117.274721,54.1711216 L117.351401,54.2301393 C117.587109,54.3996962 117.860437,54.4929526 118.171386,54.5099083 L118.276429,54.5127342 C118.779222,54.5127342 119.186179,54.3305704 119.4973,53.9662427 L119.558247,53.8909483 C119.836481,53.5280153 119.992988,53.043735 120.027767,52.4381074 L120.033357,52.3064726 Z M124.968212,53.0634025 L124.967572,54.7591385 C124.967572,55.0965328 124.896671,55.3566075 124.754869,55.5393627 L124.714438,55.587288 C124.562558,55.7529179 124.373868,55.8440144 124.148369,55.8605773 L124.071839,55.8633378 C123.842216,55.8633378 123.649301,55.7879728 123.493094,55.6372426 L123.442385,55.584208 C123.29284,55.414805 123.21127,55.1721129 123.197675,54.8561316 L123.195636,54.7591385 L123.195636,49.702845 C123.195636,48.9168609 123.462522,48.5093136 123.996296,48.4802031 L124.05907,48.4785236 C124.328749,48.4785236 124.529316,48.5586469 124.660771,48.7188935 L124.694908,48.7645836 C124.811635,48.9362196 124.881108,49.1815575 124.903327,49.5005971 L124.908983,49.6096734 C125.097491,49.2783965 125.290252,49.0190129 125.487267,48.8315225 L125.561347,48.7645836 C125.763927,48.5912139 126.02817,48.4966486 126.354078,48.4808877 L126.4537,48.4785236 C126.784423,48.4785236 127.10664,48.5538645 127.42035,48.7045463 L127.537593,48.7645836 C127.864755,48.9425765 128.039242,49.174678 128.061053,49.460888 L128.06339,49.5230469 C128.06339,49.7201703 128.004436,49.8866707 127.886529,50.022548 L127.83955,50.0720665 C127.708758,50.19806 127.568957,50.2689313 127.420145,50.2846805 L127.355817,50.2880553 C127.336363,50.2880553 127.308627,50.2843708 127.27261,50.2770017 L127.189534,50.257351 L127.139715,50.2438411 L127.023513,50.2094523 L126.885229,50.1652381 C126.67212,50.0948369 126.48035,50.0546076 126.309918,50.0445503 L126.22648,50.042036 C125.995686,50.042036 125.802578,50.0971981 125.647158,50.2075223 L125.590641,50.2514796 C125.44442,50.3758226 125.327279,50.5535024 125.23922,50.7845191 L125.207561,50.8736505 C125.128253,51.1144081 125.070319,51.3949597 125.03376,51.7153053 L125.0194,51.8550327 C124.988687,52.1920134 124.971624,52.5948033 124.968212,53.0634025 Z M74.1026514,53.3895348 L74.1053443,53.4882313 C74.1053443,53.9477368 74.0053046,54.3466377 73.8052252,54.6849338 L73.7481778,54.7756938 C73.5286142,55.1052596 73.2121937,55.3611228 72.7989164,55.5432833 L72.6935792,55.587288 C72.267141,55.7559851 71.756232,55.8473627 71.160852,55.8614208 L70.9963814,55.8633378 C70.4134143,55.8633378 69.9068182,55.7795481 69.4765931,55.6119685 L69.3611525,55.5641876 C68.9445835,55.3811383 68.6280542,55.156248 68.4115646,54.8895168 L68.3550023,54.8157345 C68.1603071,54.5461528 68.0532248,54.2757395 68.0337553,54.0044945 L68.0305104,53.9140487 C68.0305104,53.7367745 68.0852106,53.5822141 68.194611,53.4503675 L68.2382002,53.4019898 C68.3612757,53.2758216 68.5134322,53.2057282 68.69467,53.1917095 L68.7639973,53.189081 C68.9267753,53.189081 69.0563897,53.2247483 69.1528406,53.2960828 L69.1921463,53.3288385 C69.2751889,53.4062676 69.3551886,53.5099877 69.4321455,53.6399988 L69.4779546,53.7211604 C69.6395328,54.0090884 69.8292031,54.2321197 70.0469653,54.3902545 L70.1299429,54.446513 C70.3600645,54.5916489 70.6662311,54.6708139 71.0484427,54.6840081 L71.1653876,54.6859872 C71.4846966,54.6859872 71.7522897,54.6203936 71.968167,54.4892064 L72.0382107,54.443048 C72.24466,54.2958121 72.3572687,54.1293789 72.3760368,53.9437483 L72.3788521,53.8874833 C72.3788521,53.5927458 72.2783684,53.3717109 72.077401,53.2243786 L72.0250658,53.189081 C71.8075822,53.0537956 71.4599606,52.9243058 70.9822008,52.8006115 L70.8600497,52.7698087 C70.3055728,52.6286396 69.844833,52.4811067 69.4778304,52.3272101 L69.3705417,52.2808501 C69.0302481,52.129129 68.7505896,51.9344138 68.5315662,51.6967046 L68.4522747,51.6055483 C68.2420394,51.3493263 68.1281619,51.0390778 68.1106423,50.6748026 L68.1082532,50.5741153 C68.1082532,50.2467826 68.1941422,49.9356663 68.3659201,49.6407665 L68.4263604,49.5430672 C68.6191527,49.2485954 68.8950254,49.0083215 69.2539787,48.8222455 L69.3641571,48.7680487 C69.7430856,48.5911167 70.1936515,48.4952785 70.7158545,48.4805342 L70.8600497,48.4785236 C71.2614081,48.4785236 71.6271109,48.5158612 71.9571581,48.5905365 L72.0964239,48.6248262 C72.4165029,48.7103939 72.6900954,48.821312 72.9172014,48.9575803 L73.0116864,49.017533 C73.2255105,49.1610443 73.3946693,49.3182133 73.5191627,49.48904 L73.5697824,49.5630876 C73.6815143,49.7375919 73.7443635,49.9088537 73.7583299,50.0768731 L73.7613228,50.1486828 C73.7613228,50.3339424 73.7074139,50.48939 73.5995961,50.6150258 L73.5566375,50.6607418 C73.4355651,50.7791528 73.2691894,50.8449366 73.0575105,50.8580934 L72.9760073,50.8605603 C72.8169537,50.8605603 72.6786033,50.8197837 72.5609562,50.7382304 L72.5118036,50.7007825 C72.4025666,50.6094809 72.2797171,50.4791443 72.1432551,50.3097728 L72.0738898,50.2218341 C71.9620536,50.0738204 71.8337862,49.9505826 71.6890877,49.8521207 L71.6002968,49.7960167 C71.4387186,49.7013335 71.2258032,49.6487318 70.9615508,49.6382114 L70.8600497,49.6362389 C70.5756185,49.6362389 70.3338199,49.691401 70.1346538,49.8017252 L70.0619649,49.8456825 C69.8691726,49.9728514 69.7640132,50.128339 69.7464866,50.3121452 L69.7438576,50.3681367 C69.7438576,50.5376537 69.805383,50.6799953 69.9284337,50.7951614 L69.9774618,50.8370749 C70.1137308,50.9437538 70.2915023,51.0343186 70.5107761,51.1087693 L70.6072915,51.1396902 L70.8716736,51.2163489 L71.1897996,51.3026404 L71.5616695,51.3985649 L71.6975693,51.4326803 C72.1919688,51.5564985 72.604941,51.7017307 72.9364861,51.868377 L73.0439853,51.9247189 C73.3537883,52.0944641 73.5968234,52.291182 73.7730906,52.5148725 L73.8360611,52.6000207 C73.997631,52.8335658 74.0864944,53.0967372 74.1026514,53.3895348 Z M77.2398459,49.4964814 L77.2398459,49.7159353 C77.5428051,49.3330286 77.8564211,49.0426083 78.1806936,48.8446746 L78.2782951,48.788069 C78.6014349,48.6104269 78.9632096,48.5127238 79.3636191,48.4949595 L79.4985198,48.4919988 C80.0016672,48.4919988 80.4680132,48.6148 80.8975578,48.8604025 L81.0041773,48.9243614 C81.4298762,49.1920144 81.7726739,49.5744184 82.0325704,50.0715735 L82.0910749,50.1883385 C82.3382174,50.7031475 82.4706152,51.3059286 82.4882682,51.9966818 L82.4903051,52.157648 C82.4903051,52.6545634 82.42967,53.1154814 82.3083997,53.5404021 L82.2600811,53.69806 C82.1234295,54.1139813 81.9415736,54.4702789 81.7145133,54.7669527 L81.6272468,54.8754106 C81.3886629,55.1574066 81.1116998,55.3815027 80.7963576,55.5476989 L80.6763052,55.6073084 C80.3513682,55.7590295 80.0050655,55.8433191 79.637397,55.860177 L79.4985198,55.8633378 C79.0344413,55.8633378 78.6385287,55.7757738 78.3107818,55.6006456 L78.2230864,55.5507124 C77.913467,55.3631371 77.6170302,55.0964545 77.3337758,54.7506645 L77.2398459,54.6324713 L77.2398459,57.360629 C77.2398459,58.1293116 76.9770222,58.5278878 76.4513749,58.5563575 L76.3895569,58.558 C76.0821679,58.558 75.870569,58.4700818 75.7547603,58.2942453 L75.7278038,58.2484546 C75.6304562,58.0629583 75.576915,57.8010575 75.5671803,57.4627521 L75.5655578,57.3471538 L75.5655578,49.5099567 C75.5655578,49.1954178 75.6262904,48.9532136 75.7477555,48.7833439 L75.786017,48.7345531 C75.9185179,48.5809354 76.0947237,48.4964457 76.3146346,48.4810839 L76.3895569,48.4785236 C76.6155745,48.4785236 76.8037686,48.5495227 76.954139,48.6915209 L77.0028616,48.7414832 C77.1608511,48.9165329 77.2398459,49.168199 77.2398459,49.4964814 Z M80.7097121,52.2848157 L80.7119843,52.1380127 C80.7119843,51.7067281 80.6541842,51.3303301 80.538584,51.0088187 L80.4979098,50.903681 C80.3694651,50.5943666 80.1963014,50.3497103 79.9784186,50.1697119 L79.9041347,50.1121072 C79.6791269,49.948294 79.4327535,49.8572866 79.1650143,49.8390851 L79.0636105,49.8356724 C78.6072187,49.8356724 78.2177861,50.0076124 77.8953128,50.3514924 L77.8272363,50.4278127 C77.5116992,50.7993518 77.3446501,51.3359561 77.3260891,52.0376258 L77.324349,52.1711232 C77.324349,52.8489757 77.470689,53.3853833 77.763369,53.7803461 L77.8238562,53.8574527 C78.1362829,54.2337968 78.5190189,54.4337296 78.9720641,54.4572511 L79.0636105,54.4596033 C79.3251181,54.4596033 79.5695133,54.3904478 79.7967961,54.2521369 L79.881225,54.1970287 C80.1070173,54.0392529 80.2925523,53.810582 80.43783,53.511016 L80.4847649,53.4085349 C80.6059486,53.12825 80.6786588,52.8011483 80.7028956,52.4272297 L80.7097121,52.2848157 Z M88.4556953,54.9468032 L88.3897481,54.8388349 C88.0089486,55.1425054 87.6393266,55.3786429 87.280882,55.5472473 L87.1469892,55.6073084 C86.786668,55.7609261 86.3870021,55.8454158 85.9479916,55.8607775 L85.8001976,55.8633378 C85.3914279,55.8633378 85.0272759,55.7888044 84.7077415,55.6397375 L84.6028826,55.587288 C84.2932632,55.4216581 84.0476296,55.2030128 83.8659818,54.931352 L83.8078023,54.8388349 C83.6403735,54.555393 83.5482877,54.250433 83.5315448,53.923955 L83.5287543,53.814332 C83.5287543,53.3531489 83.6612019,52.9549295 83.9260971,52.6196738 L83.9895779,52.5434247 C84.2748496,52.2180941 84.6589983,51.9922437 85.1420238,51.8658738 L85.3136284,51.8250022 L85.999439,51.6781359 L86.414676,51.5902684 L86.7130189,51.5247932 L87.1156409,51.4320847 L87.237877,51.4026498 C87.4922626,51.340638 87.7639545,51.2679488 88.0529526,51.184582 L88.2729461,51.1200548 C88.2530698,50.6777117 88.1713246,50.3441729 88.0277104,50.1194383 L87.9905179,50.0655214 C87.8344219,49.8554521 87.521423,49.7438528 87.0515213,49.7307234 L86.9554489,49.7294105 C86.5430111,49.7294105 86.2241962,49.7834371 85.9990042,49.8914903 L85.9399094,49.9222989 C85.7409828,50.0348171 85.5669769,50.196562 85.4178915,50.4075337 L85.3555235,50.500964 L85.2223804,50.70896 L85.1479276,50.8212896 L85.0849221,50.9125516 L85.0333639,50.982746 L85.0118776,51.0099429 C84.9522316,51.0829516 84.8318516,51.123512 84.6507375,51.1316241 L84.5799728,51.1331451 C84.4060217,51.1331451 84.2526779,51.083034 84.1199415,50.982812 L84.0643162,50.9367916 C83.9354542,50.8206622 83.8638641,50.6755321 83.8495461,50.5014013 L83.8468615,50.4347428 C83.8468615,50.1442378 83.9380121,49.861157 84.1203132,49.5855007 L84.1777381,49.5030265 C84.3799405,49.2265703 84.6858643,48.9948667 85.0955096,48.8079156 L85.2098026,48.7580385 C85.6410718,48.5779738 86.1700512,48.4810159 86.7967408,48.4671648 L86.9554489,48.4654334 C87.6824509,48.4654334 88.2641928,48.5474906 88.7006745,48.711605 L88.7919829,48.7480283 C89.2058245,48.9229681 89.5068644,49.1926299 89.6951026,49.5570139 L89.7365397,49.642784 C89.9061815,50.0194983 89.9975271,50.5096096 90.0105765,51.1131179 L90.0122076,51.2663574 L90.0092031,52.3505364 L89.9990627,53.3419287 C89.9990627,53.6408544 90.0413319,53.9507848 90.1258702,54.27172 L90.2152967,54.5841316 L90.2567033,54.7363376 L90.2889083,54.8665554 C90.3119119,54.9659085 90.3253307,55.0423573 90.3291647,55.0959018 L90.3303148,55.1252799 C90.3303148,55.2906902 90.2627556,55.4430198 90.1276372,55.5822687 L90.073801,55.6338738 C89.9220153,55.7698525 89.7522271,55.8453962 89.5644363,55.860505 L89.4931708,55.8633378 C89.3315925,55.8633378 89.1716958,55.7941824 89.0134807,55.6558715 L88.9542288,55.6007632 C88.8163532,55.4644138 88.6718888,55.2804741 88.5208357,55.048944 L88.4556953,54.9468032 Z M88.2729461,52.4702735 L88.2729461,52.2111639 C88.1549262,52.255498 88.0125668,52.3009723 87.8458679,52.3475868 L87.6341461,52.4040714 L87.3990583,52.4616506 L87.1406045,52.5203243 L86.6365416,52.6330242 L86.3307348,52.7046492 L86.1115446,52.7597985 C85.9484402,52.8035793 85.7916821,52.8831893 85.6412705,52.9986284 L85.5665935,53.0593338 C85.4108824,53.1930851 85.3252414,53.3744464 85.3096703,53.6034176 L85.3070751,53.6815047 C85.3070751,53.931409 85.3910867,54.1473734 85.55911,54.3293978 L85.6120374,54.3829869 C85.796863,54.5584567 86.0335234,54.6541674 86.3220186,54.6701192 L86.4101222,54.672512 C86.7217056,54.672512 87.0119234,54.6103532 87.2807754,54.4860357 L87.3805933,54.4365029 C87.6441039,54.2964175 87.8451989,54.1205375 87.9838782,53.908863 L88.0329573,53.8278072 C88.1929498,53.5526557 88.2729461,53.1001445 88.2729461,52.4702735 Z M98.1602194,53.5439008 L98.1635643,53.6148985 C98.1635643,53.8127599 98.1130522,54.0225103 98.012028,54.2441499 L97.9656393,54.3398662 C97.850183,54.5651272 97.6817226,54.7809556 97.460258,54.9873513 L97.3620994,55.0752291 C97.121735,55.282163 96.8258791,55.4532011 96.4745317,55.5883432 L96.3401752,55.6373389 C95.9747324,55.763507 95.5683385,55.8336004 95.1209937,55.8476191 L94.9513199,55.8502476 C93.9022713,55.8502476 93.073744,55.5498129 92.4657382,54.9489435 L92.3876836,54.8688654 C91.7999666,54.2430565 91.4933317,53.413409 91.4677787,52.3799228 L91.4660365,52.2377294 C91.4660365,51.5458356 91.5872579,50.9284138 91.8297007,50.3854639 L91.8878009,50.2614898 C92.150232,49.7275111 92.5220445,49.3065567 93.0032384,48.9986266 L93.1080256,48.9343716 C93.6048454,48.6425878 94.1920711,48.4869698 94.8697028,48.4675175 L95.0162934,48.4654334 C95.4238,48.4654334 95.8015331,48.5196829 96.1494927,48.6281819 L96.2785819,48.671412 C96.6135584,48.7917908 96.9038696,48.9427274 97.1495154,49.124222 L97.2520576,49.2038763 C97.4847228,49.3938771 97.6694638,49.5950792 97.8062805,49.8074826 L97.8619822,49.8991985 C97.9851063,50.1145777 98.0543636,50.3171834 98.0697542,50.5070158 L98.0730521,50.5875905 C98.0730521,50.7808354 98.0106365,50.947716 97.8858053,51.0882324 L97.8360679,51.1396902 C97.6956328,51.2738436 97.5286883,51.3483733 97.3352346,51.3632793 L97.2614468,51.3660741 C97.1354701,51.3660741 97.0277047,51.3375051 96.9381506,51.2803669 L96.8948911,51.2494171 C96.8114074,51.1829759 96.719278,51.0814599 96.6185028,50.9448689 L96.5673947,50.8736505 C96.3748806,50.5740868 96.174849,50.341042 95.9672998,50.1745163 L95.8891165,50.1151873 C95.6768447,49.9634176 95.412857,49.8799443 95.0971534,49.8647673 L94.9900035,49.8622378 C94.4991813,49.8622378 94.0978136,50.0465448 93.7859004,50.4151586 L93.7247104,50.4913388 C93.4244897,50.8842863 93.2649974,51.4127006 93.2462336,52.0765815 L93.2443573,52.2111639 C93.2443573,52.5037691 93.2745255,52.7761024 93.3348618,53.0281639 L93.367544,53.1525054 C93.438151,53.3975897 93.5357071,53.611842 93.6602122,53.7952624 L93.7247104,53.8844032 C93.8609795,54.0609288 94.0220733,54.2001168 94.2079919,54.3019671 L94.2891911,54.3433312 C94.4782635,54.4326528 94.6833397,54.4836937 94.9044197,54.4964539 L95.0162934,54.499644 C95.3353771,54.499644 95.6133923,54.4313476 95.850339,54.2947549 L95.9278001,54.2466946 C96.1528079,54.0970267 96.3547684,53.8771895 96.5336815,53.5871828 L96.5996937,53.475141 C96.6924056,53.300238 96.791464,53.1579584 96.8968686,53.0483022 L96.9500998,52.9961927 C97.05986,52.8951284 97.191186,52.8382797 97.3440779,52.8256467 L97.4109234,52.8229396 C97.6032149,52.8229396 97.7664253,52.8895601 97.9005545,53.0228009 L97.9494898,53.0758891 C98.0565271,53.2023638 98.1234254,53.3350467 98.1501847,53.4739379 L98.1602194,53.5439008 Z M104.653778,52.616576 L101.188024,52.616576 C101.191808,52.9834447 101.256325,53.3116795 101.381577,53.6012807 L101.431393,53.7080701 C101.571828,53.9880128 101.753313,54.2066079 101.975848,54.3638554 L102.061223,54.4199476 C102.293798,54.5618582 102.547738,54.6406975 102.823044,54.6564653 L102.927286,54.6594218 C103.096943,54.6594218 103.254822,54.643077 103.400924,54.6103873 L103.508291,54.5828054 C103.648504,54.5419434 103.785191,54.4826831 103.918353,54.4050247 L104.017563,54.3433312 C104.140938,54.2619023 104.256989,54.1760699 104.365716,54.0858339 L104.472002,53.9941301 L104.583546,53.8926327 L104.85283,53.6396833 L105.010569,53.4882313 C105.088473,53.4198101 105.194981,53.3807123 105.330094,53.3709378 L105.400034,53.3684942 C105.559088,53.3684942 105.691591,53.4076004 105.797545,53.485813 L105.841328,53.5217269 C105.939696,53.610888 105.995028,53.7323757 106.007324,53.8861899 L106.009959,53.9540894 C106.009959,54.0976007 105.961939,54.2624337 105.865899,54.4485885 L105.821799,54.5296745 C105.712038,54.7216966 105.553396,54.906939 105.34587,55.0854017 L105.253938,55.1614706 C105.032665,55.3382207 104.761551,55.4885398 104.440595,55.6124277 L104.299992,55.6639044 C103.959698,55.7820872 103.574101,55.8477443 103.143201,55.8608757 L102.97949,55.8633378 C101.88893,55.8633378 101.03085,55.557835 100.405248,54.9468293 L100.324966,54.8654004 C99.7207238,54.2290345 99.405467,53.3755616 99.3791956,52.3049818 L99.3774044,52.157648 C99.3774044,51.6805819 99.4389298,51.2342402 99.5619805,50.8186231 L99.6110085,50.6642069 C99.751171,50.2509406 99.949235,49.8906898 100.205201,49.5834544 L100.292667,49.4830062 C100.561274,49.187783 100.885957,48.9544112 101.266717,48.7828907 L101.395714,48.728008 C101.788935,48.5704632 102.220791,48.4838136 102.691282,48.4680591 L102.849543,48.4654334 C103.492392,48.4654334 104.05029,48.5944591 104.523235,48.8525105 L104.630868,48.9143512 C105.088254,49.1906084 105.439609,49.5415523 105.684934,49.9671829 L105.744056,50.0751466 C105.970128,50.5104181 106.092583,50.9530225 106.111422,51.4029599 L106.113991,51.5258519 C106.113991,51.9522683 106.002865,52.2386061 105.780613,52.3848653 L105.731286,52.4140625 C105.475899,52.5490715 105.11673,52.616576 104.653778,52.616576 Z M101.188024,51.585528 L104.400644,51.585528 C104.360216,51.006033 104.215314,50.5627037 103.965939,50.2555402 L103.910902,50.1918036 C103.647485,49.9055602 103.306887,49.7522156 102.88911,49.7317696 L102.79133,49.7294105 C102.38144,49.7294105 102.039664,49.8641904 101.766,50.1337501 L101.704056,50.1983487 C101.420627,50.5112308 101.248616,50.9736239 101.188024,51.585528 Z M61.7234216,54.9468032 L61.6574744,54.8388349 C61.2766749,55.1425054 60.906954,55.3786429 60.5483116,55.5472473 L60.4143399,55.6073084 C60.0542441,55.7609261 59.6547022,55.8454158 59.2157142,55.8607775 L59.0679239,55.8633378 C58.6589289,55.8633378 58.2947543,55.7888044 57.9754002,55.6397375 L57.8706089,55.587288 C57.5609895,55.4216581 57.3153559,55.2030128 57.1337081,54.931352 L57.0755286,54.8388349 C56.9080998,54.555393 56.816014,54.250433 56.7992711,53.923955 L56.7964806,53.814332 C56.7964806,53.3531489 56.9289282,52.9549295 57.1938234,52.6196738 L57.2573042,52.5434247 C57.5423434,52.2180941 57.9263675,51.9922437 58.4093765,51.8658738 L58.5810711,51.8250022 L59.2668396,51.6781359 L59.6820267,51.5902684 L59.9803696,51.5247932 L60.3829916,51.4320847 L60.5052277,51.4026498 C60.7598137,51.340638 61.0316257,51.2679488 61.3206639,51.184582 L61.5406724,51.1200548 C61.520565,50.6777117 61.438802,50.3441729 61.2953834,50.1194383 L61.2582442,50.0655214 C61.1021482,49.8554521 60.7891493,49.7438528 60.3192476,49.7307234 L60.2231752,49.7294105 C59.8107374,49.7294105 59.4918174,49.7834371 59.2664149,49.8914903 L59.2072601,49.9222989 C59.0085527,50.0348171 58.8346699,50.196562 58.6856119,50.4075337 L58.6232498,50.500964 L58.4900729,50.70896 L58.41556,50.8212896 L58.3524643,50.9125516 L58.300786,50.982746 L58.2792283,51.0099429 C58.2195823,51.0829516 58.0993012,51.123512 57.918385,51.1316241 L57.8476992,51.1331451 C57.6735289,51.1331451 57.5200619,51.083034 57.3872981,50.982812 L57.3316669,50.9367916 C57.2028049,50.8206622 57.1312149,50.6755321 57.1168969,50.5014013 L57.1142123,50.4347428 C57.1142123,50.1442378 57.2054663,49.861157 57.3879744,49.5855007 L57.4454644,49.5030265 C57.6476668,49.2265703 57.9534854,48.9948667 58.3629203,48.8079156 L58.4771533,48.7580385 C58.9086536,48.5779738 59.4377575,48.4810159 60.0644649,48.4671648 L60.2231752,48.4654334 C60.9499435,48.4654334 61.5316698,48.5474906 61.968354,48.711605 L62.0597092,48.7480283 C62.4735508,48.9229681 62.7744828,49.1926299 62.962505,49.5570139 L63.0038905,49.642784 C63.1737634,50.0194983 63.2652334,50.5096096 63.2783005,51.1131179 L63.2799339,51.2663574 L63.2765538,52.3505364 L63.266789,53.3419287 C63.266789,53.6408544 63.3090582,53.9507848 63.3935965,54.27172 L63.483023,54.5841316 L63.5244296,54.7363376 L63.5566346,54.8665554 C63.5796383,54.9659085 63.593057,55.0423573 63.596891,55.0959018 L63.5980411,55.1252799 C63.5980411,55.2906902 63.5304819,55.4430198 63.3953635,55.5822687 L63.3415273,55.6338738 C63.1895191,55.7698525 63.0196072,55.8453962 62.8317916,55.860505 L62.7605215,55.8633378 C62.5991658,55.8633378 62.4393928,55.7941824 62.2812023,55.6558715 L62.2219551,55.6007632 C62.0840795,55.4644138 61.9396151,55.2804741 61.788562,55.048944 L61.7234216,54.9468032 Z M61.5406724,52.4702735 L61.5406724,52.2111639 C61.3754446,52.2732317 61.1624606,52.3375342 60.9017203,52.4040714 L60.6665332,52.4616506 L60.4079553,52.5203243 L59.9041257,52.6330242 L59.5984256,52.7046492 L59.3792709,52.7597985 C59.2161665,52.8035793 59.0594084,52.8831893 58.9089968,52.9986284 L58.8343198,53.0593338 C58.6786087,53.1930851 58.5929677,53.3744464 58.5773966,53.6034176 L58.5748014,53.6815047 C58.5748014,53.931409 58.658813,54.1473734 58.8268363,54.3293978 L58.8797637,54.3829869 C59.0645893,54.5584567 59.3012497,54.6541674 59.5897449,54.6701192 L59.6778485,54.672512 C59.9894319,54.672512 60.2796497,54.6103532 60.5485017,54.4860357 L60.6483196,54.4365029 C60.9116076,54.2964175 61.112579,54.1205375 61.2512336,53.908863 L61.300308,53.8278072 C61.4605509,53.5526557 61.5406724,53.1001445 61.5406724,52.4702735 Z M41.7573643,34.0462135 C46.219609,34.0462135 49.8534962,37.681954 49.9939238,42.2213634 L49.9979246,42.2213941 L49.9979246,56.7511634 L33.5164402,56.7511634 L33.5164402,42.2213941 L33.5208047,42.2213634 C33.6612324,37.681954 37.2951196,34.0462135 41.7573643,34.0462135 Z M41.7573643,32.6836573 C45.0606927,32.6836573 47.7385696,29.9384901 47.7385696,26.5521547 C47.7385696,23.1658192 45.0606927,20.420652 41.7573643,20.420652 C38.4540358,20.420652 35.7761589,23.1658192 35.7761589,26.5521547 C35.7761589,29.9384901 38.4540358,32.6836573 41.7573643,32.6836573 Z M32.4344249,28.5374846 L32.4344249,36.3977822 C32.4344249,41.3093131 28.5442778,45.2968279 23.7531399,45.2968279 L21.045285,45.2968279 C16.3016867,45.2968279 12.4418856,41.6169585 12.3651639,37.0556448 L12.364,36.9171563 C12.364,32.2924554 16.2537715,28.5374846 21.045285,28.5374846 L32.4344249,28.5374846 Z M28.8064252,34.6383014 L28.7424583,34.6406884 C28.6774637,34.6457808 28.6228273,34.6590209 28.578549,34.6804088 L28.5472824,34.6979774 L28.5171221,34.7210992 C28.4772561,34.7560636 28.4387811,34.8075689 28.4016971,34.8756153 L28.3741449,34.9297515 L28.3503614,34.9814053 L28.3267937,35.0360787 L28.3267937,35.0360787 L28.2774969,35.1603714 L28.2774969,35.1603714 L28.225318,35.3045922 L28.225318,35.3045922 L27.3383247,37.8996935 L26.4126383,35.139753 C26.3698387,35.0204481 26.3228009,34.921479 26.2715248,34.8428459 L26.232273,34.787684 L26.201312,34.7526725 C26.1358691,34.6873176 26.0493004,34.6499719 25.9416059,34.6406355 L25.8859981,34.6383014 L25.8333733,34.6411659 C25.7811542,34.6468948 25.7301519,34.661217 25.6803664,34.6841326 L25.6309865,34.7099127 L25.5839653,34.7406208 C25.5390472,34.7732386 25.5004386,34.8115852 25.4681397,34.8556608 L25.4379439,34.901646 L25.4127958,34.9503417 C25.3904419,34.9998381 25.3764707,35.051737 25.3708823,35.1060384 L25.368088,35.1611406 L25.3699717,35.1965552 C25.3775066,35.2723774 25.407646,35.378158 25.46039,35.513897 L25.4886458,35.584263 L26.7971293,38.9615421 L26.6998569,39.2048663 L26.6691521,39.2786619 C26.6498347,39.3241914 26.6311577,39.3664575 26.6131212,39.4054601 L26.5609328,39.512678 C26.552555,39.5289159 26.5443373,39.544338 26.5362797,39.5589443 L26.5068142,39.6098934 L26.4725923,39.6617461 C26.4374991,39.7103186 26.399792,39.7490502 26.3594709,39.7779411 L26.3182784,39.8035518 L26.2730899,39.8236491 C26.2215558,39.8427044 26.1593559,39.8541376 26.0864902,39.8579486 L26.0298412,39.8593778 L25.9911575,39.8578859 C25.9642417,39.8558967 25.9350725,39.8519183 25.9036499,39.8459507 L25.8548259,39.8355074 L25.7998258,39.822246 L25.7439912,39.8142892 L25.6873219,39.8116369 L25.6271695,39.8137191 C25.530569,39.8206597 25.452236,39.8449518 25.3921704,39.8865954 L25.3583232,39.9136637 L25.3288295,39.9444564 C25.2834546,39.9986978 25.2569859,40.0675407 25.2494234,40.150985 L25.2471547,40.2028038 L25.2494907,40.2562158 C25.2619496,40.3940584 25.3242441,40.4951869 25.436374,40.5596011 L25.4807588,40.5820354 L25.5356337,40.6038525 C25.6703935,40.6517644 25.852183,40.6787149 26.0810021,40.6847039 L26.1819468,40.6859872 L26.2859331,40.6841383 C26.5229096,40.6755097 26.7202782,40.636681 26.878039,40.5676523 L26.9432258,40.5362196 L27.0215588,40.4907888 C27.1483582,40.4106708 27.2563791,40.3085523 27.3456215,40.1844335 L27.3969135,40.1073221 L27.4398458,40.0341347 C27.5259451,39.8811427 27.6134527,39.6884468 27.7023688,39.4560471 L29.1335461,35.6162185 L29.1655947,35.520908 L29.194138,35.426453 L29.2191759,35.3328536 L29.262802,35.1501448 L29.2698778,35.1172498 L29.2674591,35.0681537 C29.2626218,35.0195505 29.2505284,34.9724257 29.2311791,34.9267793 L29.2094111,34.8816257 L29.1832114,34.8387975 C29.1549986,34.797802 29.1207467,34.7623044 29.0804556,34.7323047 L29.0381515,34.7041376 L28.9933085,34.6804365 C28.94809,34.659369 28.9017447,34.6462017 28.8542728,34.6409349 L28.8064252,34.6383014 Z M23.0703549,34.6302163 L22.9519801,34.6326767 C22.7179065,34.6425184 22.4998885,34.6818854 22.2979261,34.7507775 L22.1982829,34.787684 L22.1018378,34.8293008 C21.9128561,34.9168417 21.7473239,35.0302262 21.6052413,35.1694543 L21.5361542,35.241222 L21.4710281,35.3168878 C21.3447898,35.4719011 21.242635,35.6490042 21.1645635,35.8481971 L21.1275347,35.9496344 L21.090269,36.0690886 C21.0329372,36.2705493 20.9994937,36.4838613 20.9899384,36.7090248 L20.9870718,36.845545 L20.9892929,36.972131 C21.0100236,37.5550754 21.1758687,38.0289545 21.4868284,38.3937684 L21.5556838,38.4702735 L21.6241556,38.5386355 C21.9743968,38.8700876 22.4428643,39.0461716 23.0295582,39.0668874 L23.1484733,39.0689589 L23.2742813,39.0665153 C23.4804612,39.0583699 23.6691401,39.0298611 23.840318,38.9809888 L23.9409246,38.9492218 L24.0369477,38.9138484 C24.186783,38.8552142 24.3183702,38.7868043 24.4317094,38.7086187 L24.5132922,38.6481466 L24.5859753,38.5871337 C24.6786436,38.5051986 24.7543417,38.4209249 24.8130696,38.3343126 L24.8539336,38.2689149 L24.8884755,38.2043515 C24.9303446,38.1201348 24.955466,38.0433901 24.9638398,37.9741174 L24.96698,37.9235639 L24.9641632,37.8698341 C24.9566518,37.8009892 24.9341177,37.7433237 24.8965607,37.6968377 L24.8655763,37.6640694 L24.830158,37.6359532 C24.7806106,37.6018729 24.7217715,37.5814248 24.6536404,37.5746088 L24.6007999,37.5720527 L24.5429021,37.5749326 C24.484125,37.5810763 24.4348856,37.5970498 24.3951838,37.6228533 L24.3671958,37.644049 L24.1870164,37.815762 L24.0438306,37.9474343 L23.9582842,38.0203289 L23.8673964,38.0901435 L23.7711672,38.156878 L23.6967341,38.2026938 C23.6466895,38.2310559 23.5957998,38.2550547 23.5440651,38.27469 L23.4658294,38.3008705 L23.3848942,38.3209149 C23.3295603,38.3323689 23.2714722,38.3400048 23.21063,38.3438228 L23.117301,38.3466863 L23.0370595,38.3437555 C22.9049715,38.3339863 22.781123,38.2997941 22.6655141,38.2411787 L22.5971375,38.2030788 L22.5317654,38.1590937 C22.4259929,38.0810447 22.3361245,37.979293 22.2621603,37.8538384 L22.2196903,37.7757213 L22.1818498,37.6929684 C22.123496,37.5520612 22.0887112,37.3962251 22.0774952,37.2254603 L22.0735939,37.1212099 L24.1531212,37.1212099 L24.2433738,37.1197079 C24.4485861,37.1126985 24.6161596,37.0811565 24.7460942,37.0250818 L24.7994761,36.9995477 L24.8393019,36.9749709 C24.9530901,36.8940813 25.0156736,36.7487588 25.0270524,36.5390033 L25.0289489,36.4666984 L25.0262086,36.3684171 C25.0134207,36.1395488 24.9558752,35.9138636 24.8535719,35.6913614 L24.8069874,35.5961982 L24.7548992,35.5032594 C24.626912,35.2909385 24.4537884,35.1103704 24.2355286,34.961555 L24.1392252,34.899721 L24.0482923,34.8485151 C23.8010776,34.7191528 23.5160455,34.6472849 23.1931961,34.6329113 L23.0703549,34.6302163 Z M16.8712075,33.017423 L16.8106,33.0200098 C16.692859,33.0303569 16.5959621,33.0717451 16.5199094,33.1441745 L16.48362,33.1829759 L16.4512271,33.2270472 C16.3907605,33.3203632 16.3562081,33.4447204 16.34757,33.6001187 L16.3454105,33.6804046 L16.3454105,38.4063623 L16.3470333,38.4779391 C16.3643435,38.8487751 16.5201352,39.0451 16.8144085,39.0669139 L16.8712075,39.0689589 L16.9327539,39.066312 C17.0523728,39.0557243 17.1511475,39.0133736 17.2290781,38.9392598 L17.2663065,38.899556 L17.2996676,38.8547087 C17.3619417,38.7602136 17.3975269,38.6369152 17.4064232,38.4848135 L17.4086472,38.4063623 L17.4092419,36.8644799 C17.4131666,36.5392615 17.4365185,36.3001686 17.4792978,36.1472013 L17.494277,36.099402 L17.5288217,36.0197213 C17.590318,35.8910714 17.6714231,35.7831779 17.772137,35.6960406 L17.8349184,35.646249 L17.8927913,35.6074476 C18.0102976,35.5350182 18.1383667,35.49363 18.2769987,35.4832829 L18.347195,35.4806961 L18.4160337,35.4826506 C18.636953,35.4955499 18.7960118,35.5723009 18.89321,35.7129036 L18.9233183,35.7621361 L18.9551629,35.8275825 C19.0262061,35.9898015 19.0656746,36.2024155 19.0735683,36.4654245 L19.0750483,36.5664151 L19.0750483,38.4063623 L19.0766712,38.4779391 C19.0939814,38.8487751 19.2497731,39.0451 19.5440463,39.0669139 L19.6008454,39.0689589 L19.6597276,39.0663421 C19.774511,39.0558747 19.8714079,39.0140052 19.9504183,38.9407337 L19.9884329,38.901481 L20.0226743,38.857109 C20.0865915,38.7633598 20.1231156,38.6395802 20.1322467,38.48577 L20.1345294,38.4063623 L20.1345294,36.3188558 L20.132967,36.1956845 C20.1298423,36.07547 20.1220305,35.964126 20.1095315,35.8616526 L20.0954702,35.7621361 L20.0769021,35.6672704 C20.0553894,35.5742528 20.0250434,35.4867793 19.9858641,35.4048498 L19.9437402,35.3247684 L19.8968527,35.2434297 C19.7988761,35.0857454 19.6756893,34.9580194 19.5272925,34.8602518 L19.4509932,34.8138645 L19.3711672,34.7727169 C19.208663,34.695908 19.029047,34.6520173 18.8323191,34.6410446 L18.7325291,34.6383014 L18.6265134,34.6410889 C18.5218948,34.6466638 18.4214676,34.660601 18.3252317,34.6829006 L18.2303929,34.7079876 L18.1384535,34.7388036 C18.0481667,34.772407 17.9628373,34.8143727 17.8824655,34.8647008 L17.8037462,34.9178163 L17.7262887,34.9775847 C17.6432509,35.0456252 17.5588798,35.1273854 17.4731754,35.2228655 L17.4086472,35.2970479 L17.4086472,33.6804046 L17.4064232,33.600997 C17.3975269,33.4471868 17.3619417,33.3234071 17.2996676,33.229658 L17.2663065,33.185286 L17.2290781,33.1459431 C17.1511475,33.0725031 17.0523728,33.0305373 16.9327539,33.0200459 L16.8712075,33.017423 Z M23.0354269,35.3886795 L23.117117,35.3914554 C23.3306607,35.4062602 23.5098323,35.4802842 23.6546318,35.6135273 L23.7073204,35.6662694 L23.7518983,35.7189994 C23.8802686,35.8841768 23.9603673,36.1122408 23.9921944,36.4031914 L24.0010157,36.502504 L22.0735939,36.502504 L22.0851527,36.4045596 C22.1243122,36.1209533 22.2071252,35.8960087 22.3335918,35.7297258 L22.383063,35.6701195 L22.4354887,35.6166459 C22.5790864,35.4815547 22.7530501,35.4065041 22.9573799,35.3914939 L23.0354269,35.3886795 Z" id="Shape" fill="#FFFFFF"></path>
        </g>
    </g>
</svg>